999
DXF file: C:\Users\Peter\Desktop\Schule\SPL\SPL24-25_LED-Board\Creo\quickner-schnittdaten-laser.dxf
999
Pro/ENGINEER 2021164 by Parametric Technology Corporation
  0
SECTION
  2
HEADER
  9
$ACADVER
  1
AC1015
  9
$DWGCODEPAGE
  3
ANSI_1252
  9
$EXTMAX
 10
210.0
 20
297.0
 30
0.0
  9
$EXTMIN
 10
0.0
 20
0.0
 30
0.0
  9
$LIMMIN
 10
0.0
 20
0.0
  9
$LIMMAX
 10
210.0
 20
297.0
  9
$VIEWCTR
 10
105.0
 20
148.5
  9
$VIEWSIZE
 40
297.0
  9
$CLAYER
  8
0
  9
$LTSCALE
 40
19.36
  9
$CELTYPE
  6
BYLAYER
  9
$DIMSCALE
 40
1.0
  9
$DIMASZ
 40
3.5
  9
$DIMEXO
 40
0.0
  9
$DIMDLI
 40
13.376
  9
$DIMEXE
 40
1.0
  9
$DIMCEN
 40
3.168
  9
$DIMLFAC
 40
1.0
  9
$DIMBLK
  1
_FILLED
  9
$DIMALT
 70
0
  9
$DIMALTF
 40
0.0393700787
  9
$DIMTXT
 40
3.5
  9
$DIMTOL
 70
1
  9
$DIMLIM
 70
0
  9
$DIMTFAC
 40
1.0
  9
$DIMTP
 40
0.001
  9
$DIMTM
 40
0.001
  9
$DIMGAP
 40
0.625
  9
$DIMDSEP
 70
46
  9
$AUNITS
 70
0
  9
$PDMODE
 70
3
  9
$PDSIZE
 40
1.5
  9
$HANDSEED
  5
3F4
  9
$TILEMODE
 70
1
  9
$MEASUREMENT
 70
1
  9
$INSUNITS
 70
4
  0
ENDSEC
  0
SECTION
  2
CLASSES
  0
CLASS
  1
ACDBDICTIONARYWDFLT
  2
AcDbDictionaryWithDefault
  3
AutoCAD 2000
 90
0
280
0
281
0
  0
CLASS
  1
ACDBPLACEHOLDER
  2
AcDbPlaceHolder
  3
AutoCAD 2000
 90
0
280
0
281
0
  0
CLASS
  1
LAYOUT
  2
AcDbLayout
  3
AutoCAD 2000
 90
0
280
0
281
0
  0
ENDSEC
  0
SECTION
  2
TABLES
  0
TABLE
  2
VPORT
  5
8
100
AcDbSymbolTable
 70
2
  0
VPORT
  5
1F4
100
AcDbSymbolTableRecord
100
AcDbViewportTableRecord
  2
*ACTIVE
 70
0
 10
0.0
 20
0.0
 11
1.0
 21
1.0
 12
105.0
 22
148.5
 13
0.0
 23
0.0
 14
1.0
 24
1.0
 15
0.0
 25
0.0
 16
0.0
 26
0.0
 36
1.0
 17
0.0
 27
0.0
 37
0.0
 40
297.0
 41
0.7070707071
 42
50.0
 43
0.0
 44
0.0
 50
0.0
 51
0.0
 71
0
 72
100
 73
1
 74
1
 75
0
 76
0
 77
0
 78
0
  0
ENDTAB
  0
TABLE
  2
LTYPE
  5
5
100
AcDbSymbolTable
 70
6
  0
LTYPE
  5
14
100
AcDbSymbolTableRecord
100
AcDbLinetypeTableRecord
  2
BYBLOCK
 70
0
  3

 72
65
 73
0
 40
0.0
  0
LTYPE
  5
15
100
AcDbSymbolTableRecord
100
AcDbLinetypeTableRecord
  2
BYLAYER
 70
0
  3

 72
65
 73
0
 40
0.0
  0
LTYPE
  5
16
100
AcDbSymbolTableRecord
100
AcDbLinetypeTableRecord
  2
CONTINUOUS
 70
64
  3
Solid line
 72
65
 73
0
 40
0.0
  0
LTYPE
  5
1F5
100
AcDbSymbolTableRecord
100
AcDbLinetypeTableRecord
  2
CENTER
 70
64
  3
____ _ ____ _ ____ _ ____ _ ____ _ ____ _ ____
 72
65
 73
4
 40
0.6
 49
0.375
 74
0
 49
-0.075
 74
0
 49
0.075
 74
0
 49
-0.075
 74
0
  0
LTYPE
  5
1F6
100
AcDbSymbolTableRecord
100
AcDbLinetypeTableRecord
  2
HIDDEN
 70
64
  3
- - - - - - - - - - - - - - - - - - - -
 72
65
 73
2
 40
0.2
 49
0.1
 74
0
 49
-0.1
 74
0
  0
LTYPE
  5
1F7
100
AcDbSymbolTableRecord
100
AcDbLinetypeTableRecord
  2
PHANTOM
 70
64
  3
_____ _ _ _____ _ _ _____ _ _ _____
 72
65
 73
6
 40
0.8
 49
0.45
 74
0
 49
-0.05
 74
0
 49
0.1
 74
0
 49
-0.05
 74
0
 49
0.1
 74
0
 49
-0.05
 74
0
  0
LTYPE
  5
1F8
100
AcDbSymbolTableRecord
100
AcDbLinetypeTableRecord
  2
DOT
 70
64
  3
. . . . . . . . . . . . . . . . . . . .
 72
65
 73
2
 40
0.2
 49
0.1
 74
0
 49
-0.1
 74
0
  0
LTYPE
  5
1F9
100
AcDbSymbolTableRecord
100
AcDbLinetypeTableRecord
  2
DASHED
 70
64
  3
- - - - - - - - - - - - - - - - - - - -
 72
65
 73
2
 40
0.2
 49
0.1
 74
0
 49
-0.1
 74
0
  0
ENDTAB
  0
TABLE
  2
LAYER
  5
2
100
AcDbSymbolTable
 70
36
  0
LAYER
  5
10
100
AcDbSymbolTableRecord
100
AcDbLayerTableRecord
  2
0
 70
0
 62
7
  6
CONTINUOUS
370
-3
390
F
  0
LAYER
  5
1FA
100
AcDbSymbolTableRecord
100
AcDbLayerTableRecord
  2
DEFAULT_1
 70
0
 62
7
  6
CENTER
370
-3
390
F
  0
LAYER
  5
1FB
100
AcDbSymbolTableRecord
100
AcDbLayerTableRecord
  2
DEFAULT_2
 70
0
 62
8
  6
HIDDEN
370
-3
390
F
  0
LAYER
  5
1FC
100
AcDbSymbolTableRecord
100
AcDbLayerTableRecord
  2
DEFAULT_3
 70
0
 62
7
  6
PHANTOM
370
-3
390
F
  0
LAYER
  5
1FD
100
AcDbSymbolTableRecord
100
AcDbLayerTableRecord
  2
CLOSED_SHELL
 70
0
 62
7
  6
CONTINUOUS
370
-3
390
F
  0
LAYER
  5
1FE
100
AcDbSymbolTableRecord
100
AcDbLayerTableRecord
  2
S-EBENEN
 70
0
 62
7
  6
CONTINUOUS
370
-3
390
F
  0
LAYER
  5
1FF
100
AcDbSymbolTableRecord
100
AcDbLayerTableRecord
  2
S-KOORDINATENSYSTEM
 70
0
 62
7
  6
CONTINUOUS
370
-3
390
F
  0
LAYER
  5
200
100
AcDbSymbolTableRecord
100
AcDbLayerTableRecord
  2
_ACHSEN
 70
0
 62
7
  6
CONTINUOUS
370
-3
390
F
  0
LAYER
  5
201
100
AcDbSymbolTableRecord
100
AcDbLayerTableRecord
  2
_EBENEN
 70
0
 62
7
  6
CONTINUOUS
370
-3
390
F
  0
LAYER
  5
202
100
AcDbSymbolTableRecord
100
AcDbLayerTableRecord
  2
_FLAECHEN
 70
0
 62
7
  6
CONTINUOUS
370
-3
390
F
  0
LAYER
  5
203
100
AcDbSymbolTableRecord
100
AcDbLayerTableRecord
  2
_GEWINDE
 70
0
 62
7
  6
CONTINUOUS
370
-3
390
F
  0
LAYER
  5
204
100
AcDbSymbolTableRecord
100
AcDbLayerTableRecord
  2
_KOORD_SYS
 70
0
 62
7
  6
CONTINUOUS
370
-3
390
F
  0
LAYER
  5
205
100
AcDbSymbolTableRecord
100
AcDbLayerTableRecord
  2
_KOPIE_GEOM
 70
0
 62
7
  6
CONTINUOUS
370
-3
390
F
  0
LAYER
  5
206
100
AcDbSymbolTableRecord
100
AcDbLayerTableRecord
  2
_KOSMETIK
 70
0
 62
7
  6
CONTINUOUS
370
-3
390
F
  0
LAYER
  5
207
100
AcDbSymbolTableRecord
100
AcDbLayerTableRecord
  2
_KURVEN
 70
0
 62
7
  6
CONTINUOUS
370
-3
390
F
  0
LAYER
  5
208
100
AcDbSymbolTableRecord
100
AcDbLayerTableRecord
  2
_NOTIZEN
 70
0
 62
7
  6
CONTINUOUS
370
-3
390
F
  0
LAYER
  5
209
100
AcDbSymbolTableRecord
100
AcDbLayerTableRecord
  2
_PUNKTE
 70
0
 62
7
  6
CONTINUOUS
370
-3
390
F
  0
LAYER
  5
20A
100
AcDbSymbolTableRecord
100
AcDbLayerTableRecord
  2
_SAMMELFLAECHEN
 70
0
 62
7
  6
CONTINUOUS
370
-3
390
F
  0
LAYER
  5
20B
100
AcDbSymbolTableRecord
100
AcDbLayerTableRecord
  2
_SYMBOLE
 70
0
 62
7
  6
CONTINUOUS
370
-3
390
F
  0
LAYER
  5
20C
100
AcDbSymbolTableRecord
100
AcDbLayerTableRecord
  2
_TOLERANZEN
 70
0
 62
7
  6
CONTINUOUS
370
-3
390
F
  0
LAYER
  5
20D
100
AcDbSymbolTableRecord
100
AcDbLayerTableRecord
  2
_ZEICH_ELEMENTE
 70
0
 62
7
  6
CONTINUOUS
370
-3
390
F
  0
ENDTAB
  0
TABLE
  2
STYLE
  5
3
100
AcDbSymbolTable
 70
1
  0
STYLE
  5
11
100
AcDbSymbolTableRecord
100
AcDbTextStyleTableRecord
  2
STANDARD
 70
0
 40
0.0
 41
0.8
 50
0.0
 71
0
 42
0.2
  3
txt
  4

  0
STYLE
  5
20E
100
AcDbSymbolTableRecord
100
AcDbTextStyleTableRecord
  2
TEXTSTYLE_1
 70
0
 40
0.0
 41
0.8
 50
0.0
 71
0
 42
0.2
  3
gdt
  4

  0
ENDTAB
  0
TABLE
  2
VIEW
  5
6
100
AcDbSymbolTable
 70
0
  0
ENDTAB
  0
TABLE
  2
UCS
  5
7
100
AcDbSymbolTable
 70
0
  0
ENDTAB
  0
TABLE
  2
APPID
  5
9
100
AcDbSymbolTable
 70
1
  0
APPID
  5
20F
100
AcDbSymbolTableRecord
100
AcDbRegAppTableRecord
  2
ACAD
 70
0
  0
ENDTAB
  0
TABLE
  2
BLOCK_RECORD
  5
1
100
AcDbSymbolTable
 70
0
  0
BLOCK_RECORD
  5
210
100
AcDbSymbolTableRecord
100
AcDbBlockTableRecord
  2
*Model_Space
  0
BLOCK_RECORD
  5
211
100
AcDbSymbolTableRecord
100
AcDbBlockTableRecord
  2
*Paper_Space
  0
BLOCK_RECORD
  5
212
100
AcDbSymbolTableRecord
100
AcDbBlockTableRecord
  2
_FILLED
  0
ENDTAB
  0
TABLE
  2
DIMSTYLE
  5
A
100
AcDbSymbolTable
 70
1
100
AcDbDimStyleTable
 71
0
  0
DIMSTYLE
105
213
100
AcDbSymbolTableRecord
100
AcDbDimStyleTableRecord
  2
STANDARD
 70
0
  3

  4

 40
1.0
 41
3.5
 42
0.0
 43
0.38
 44
1.0
 45
0.0
 46
0.0
 47
0.001
 48
0.001
140
3.5
141
0.09
142
0.0
143
25.4
144
1.0
145
0.0
146
1.0
147
0.625
 71
1
 72
0
 73
0
 74
0
 75
0
 76
0
 77
1
 78
8
 79
2
170
0
171
2
172
0
173
0
174
0
175
0
176
0
177
0
178
0
270
2
179
3
271
3
272
3
273
2
274
2
275
0
280
0
281
0
282
0
283
1
284
8
285
0
286
0
287
3
288
0
340
11
278
46
341
212
342
212
343
212
344
212
  0
ENDTAB
  0
ENDSEC
  0
SECTION
  2
BLOCKS
  0
BLOCK
  5
20
100
AcDbEntity
  8
0
100
AcDbBlockBegin
  2
*Model_Space
 70
0
 10
0.0
 20
0.0
 30
0.0
  3
*Model_Space
  1

  0
ENDBLK
  5
21
100
AcDbEntity
  8
0
100
AcDbBlockEnd
  0
BLOCK
  5
1C
100
AcDbEntity
  8
0
100
AcDbBlockBegin
  2
*Paper_Space
 70
0
 10
0.0
 20
0.0
 30
0.0
  3
*Paper_Space
  1

  0
ENDBLK
  5
1D
100
AcDbEntity
  8
0
100
AcDbBlockEnd
  0
BLOCK
  5
214
100
AcDbEntity
  8
0
100
AcDbBlockBegin
  2
_FILLED
 70
64
 10
0.0
 20
0.0
  3
_FILLED
  1

  0
SOLID
  5
215
100
AcDbEntity
  8
0
  6
BYBLOCK
 62
0
100
AcDbTrace
 10
0.0
 20
0.0
 11
-1.0
 21
0.1285714286
 12
-1.0
 22
-0.1285714286
 13
-1.0
 23
-0.1285714286
  0
ENDBLK
  5
216
100
AcDbEntity
  8
0
  6
BYBLOCK
 62
0
100
AcDbBlockEnd
  0
ENDSEC
  0
SECTION
  2
ENTITIES
  0
LINE
  5
217
100
AcDbEntity
  8
0
100
AcDbLine
 62
7
  6
CONTINUOUS
 10
-73.3745699505
 20
408.8159646018
 11
-73.3745699505
 21
224.8159646018
  0
LINE
  5
218
100
AcDbEntity
  8
0
100
AcDbLine
 62
7
  6
CONTINUOUS
 10
-66.3745699505
 20
217.8159646018
 11
277.6254300495
 21
217.8159646018
  0
LINE
  5
219
100
AcDbEntity
  8
0
100
AcDbLine
 62
7
  6
CONTINUOUS
 10
277.6254300495
 20
415.8159646018
 11
-66.3745699505
 21
415.8159646018
  0
LINE
  5
21A
100
AcDbEntity
  8
0
100
AcDbLine
 62
7
  6
CONTINUOUS
 10
284.6254300495
 20
224.8159646018
 11
284.6254300495
 21
408.8159646018
  0
LINE
  5
21B
100
AcDbEntity
  8
0
100
AcDbLine
 62
7
  6
CONTINUOUS
 10
5.5196664882
 20
-199.0496095484
 11
-10.4300809801
 21
-183.0998620801
  0
LINE
  5
21C
100
AcDbEntity
  8
0
100
AcDbLine
 62
7
  6
CONTINUOUS
 10
5.5196664882
 20
-199.0496095484
 11
167.5196664882
 21
-199.0496095484
  0
LINE
  5
21D
100
AcDbEntity
  8
0
100
AcDbLine
 62
7
  6
CONTINUOUS
 10
178.5196664882
 20
-181.0496095484
 11
-5.4803335118
 21
-181.0496095484
  0
LINE
  5
21E
100
AcDbEntity
  8
0
100
AcDbLine
 62
7
  6
CONTINUOUS
 10
183.4694139565
 20
-183.0998620801
 11
167.5196664882
 21
-199.0496095484
  0
LINE
  5
21F
100
AcDbEntity
  8
0
100
AcDbLine
 62
7
  6
CONTINUOUS
 10
-57.7598623895
 20
208.6631941073
 11
-73.7096098578
 21
192.7134466389
  0
LINE
  5
220
100
AcDbEntity
  8
0
100
AcDbLine
 62
7
  6
CONTINUOUS
 10
275.2401376105
 20
190.6631941073
 11
-68.7598623895
 21
190.6631941073
  0
LINE
  5
221
100
AcDbEntity
  8
0
100
AcDbLine
 62
7
  6
CONTINUOUS
 10
-57.7598623895
 20
208.6631941073
 11
264.2401376105
 21
208.6631941073
  0
LINE
  5
222
100
AcDbEntity
  8
0
100
AcDbLine
 62
7
  6
CONTINUOUS
 10
280.1898850788
 20
192.7134466389
 11
264.2401376105
 21
208.6631941073
  0
LINE
  5
223
100
AcDbEntity
  8
0
100
AcDbLine
 62
7
  6
CONTINUOUS
 10
-73.3745699505
 20
-111.883566506
 11
-73.3745699505
 21
-56.883566506
  0
LINE
  5
224
100
AcDbEntity
  8
0
100
AcDbLine
 62
7
  6
CONTINUOUS
 10
-60.4745699505
 20
-65.883566506
 11
-60.4745699505
 21
-61.683566506
  0
LINE
  5
225
100
AcDbEntity
  8
0
100
AcDbLine
 62
7
  6
CONTINUOUS
 10
-58.2745699505
 20
-65.883566506
 11
-58.2745699505
 21
-61.683566506
  0
LINE
  5
226
100
AcDbEntity
  8
0
100
AcDbLine
 62
7
  6
CONTINUOUS
 10
-50.4745699505
 20
-65.883566506
 11
-50.4745699505
 21
-61.683566506
  0
LINE
  5
227
100
AcDbEntity
  8
0
100
AcDbLine
 62
7
  6
CONTINUOUS
 10
-48.2745699505
 20
-65.883566506
 11
-48.2745699505
 21
-61.683566506
  0
LINE
  5
228
100
AcDbEntity
  8
0
100
AcDbLine
 62
7
  6
CONTINUOUS
 10
-40.4745699505
 20
-65.883566506
 11
-40.4745699505
 21
-61.683566506
  0
LINE
  5
229
100
AcDbEntity
  8
0
100
AcDbLine
 62
7
  6
CONTINUOUS
 10
-38.2745699505
 20
-65.883566506
 11
-38.2745699505
 21
-61.683566506
  0
LINE
  5
22A
100
AcDbEntity
  8
0
100
AcDbLine
 62
7
  6
CONTINUOUS
 10
-30.4745699505
 20
-65.883566506
 11
-30.4745699505
 21
-61.683566506
  0
LINE
  5
22B
100
AcDbEntity
  8
0
100
AcDbLine
 62
7
  6
CONTINUOUS
 10
-28.2745699505
 20
-65.883566506
 11
-28.2745699505
 21
-61.683566506
  0
LINE
  5
22C
100
AcDbEntity
  8
0
100
AcDbLine
 62
7
  6
CONTINUOUS
 10
-20.4745699505
 20
-65.883566506
 11
-20.4745699505
 21
-61.683566506
  0
LINE
  5
22D
100
AcDbEntity
  8
0
100
AcDbLine
 62
7
  6
CONTINUOUS
 10
-18.2745699505
 20
-65.883566506
 11
-18.2745699505
 21
-61.683566506
  0
LINE
  5
22E
100
AcDbEntity
  8
0
100
AcDbLine
 62
7
  6
CONTINUOUS
 10
-10.4745699505
 20
-65.883566506
 11
-10.4745699505
 21
-61.683566506
  0
LINE
  5
22F
100
AcDbEntity
  8
0
100
AcDbLine
 62
7
  6
CONTINUOUS
 10
-8.2745699505
 20
-65.883566506
 11
-8.2745699505
 21
-61.683566506
  0
LINE
  5
230
100
AcDbEntity
  8
0
100
AcDbLine
 62
7
  6
CONTINUOUS
 10
-0.4745699505
 20
-65.883566506
 11
-0.4745699505
 21
-61.683566506
  0
LINE
  5
231
100
AcDbEntity
  8
0
100
AcDbLine
 62
7
  6
CONTINUOUS
 10
1.7254300495
 20
-65.883566506
 11
1.7254300495
 21
-61.683566506
  0
LINE
  5
232
100
AcDbEntity
  8
0
100
AcDbLine
 62
7
  6
CONTINUOUS
 10
9.5254300495
 20
-65.883566506
 11
9.5254300495
 21
-61.683566506
  0
LINE
  5
233
100
AcDbEntity
  8
0
100
AcDbLine
 62
7
  6
CONTINUOUS
 10
11.7254300495
 20
-65.883566506
 11
11.7254300495
 21
-61.683566506
  0
LINE
  5
234
100
AcDbEntity
  8
0
100
AcDbLine
 62
7
  6
CONTINUOUS
 10
19.5254300495
 20
-65.883566506
 11
19.5254300495
 21
-61.683566506
  0
LINE
  5
235
100
AcDbEntity
  8
0
100
AcDbLine
 62
7
  6
CONTINUOUS
 10
21.7254300495
 20
-65.883566506
 11
21.7254300495
 21
-61.683566506
  0
LINE
  5
236
100
AcDbEntity
  8
0
100
AcDbLine
 62
7
  6
CONTINUOUS
 10
29.5254300495
 20
-65.883566506
 11
29.5254300495
 21
-61.683566506
  0
LINE
  5
237
100
AcDbEntity
  8
0
100
AcDbLine
 62
7
  6
CONTINUOUS
 10
31.7254300495
 20
-65.883566506
 11
31.7254300495
 21
-61.683566506
  0
LINE
  5
238
100
AcDbEntity
  8
0
100
AcDbLine
 62
7
  6
CONTINUOUS
 10
39.5254300495
 20
-65.883566506
 11
39.5254300495
 21
-61.683566506
  0
LINE
  5
239
100
AcDbEntity
  8
0
100
AcDbLine
 62
7
  6
CONTINUOUS
 10
41.7254300495
 20
-65.883566506
 11
41.7254300495
 21
-61.683566506
  0
LINE
  5
23A
100
AcDbEntity
  8
0
100
AcDbLine
 62
7
  6
CONTINUOUS
 10
49.5254300495
 20
-65.883566506
 11
49.5254300495
 21
-61.683566506
  0
LINE
  5
23B
100
AcDbEntity
  8
0
100
AcDbLine
 62
7
  6
CONTINUOUS
 10
51.7254300495
 20
-65.883566506
 11
51.7254300495
 21
-61.683566506
  0
LINE
  5
23C
100
AcDbEntity
  8
0
100
AcDbLine
 62
7
  6
CONTINUOUS
 10
59.5254300495
 20
-65.883566506
 11
59.5254300495
 21
-61.683566506
  0
LINE
  5
23D
100
AcDbEntity
  8
0
100
AcDbLine
 62
7
  6
CONTINUOUS
 10
61.7254300495
 20
-65.883566506
 11
61.7254300495
 21
-61.683566506
  0
LINE
  5
23E
100
AcDbEntity
  8
0
100
AcDbLine
 62
7
  6
CONTINUOUS
 10
69.5254300495
 20
-65.883566506
 11
69.5254300495
 21
-61.683566506
  0
LINE
  5
23F
100
AcDbEntity
  8
0
100
AcDbLine
 62
7
  6
CONTINUOUS
 10
254.6254300495
 20
-111.883566506
 11
-73.3745699505
 21
-111.883566506
  0
LINE
  5
240
100
AcDbEntity
  8
0
100
AcDbLine
 62
7
  6
CONTINUOUS
 10
71.7254300495
 20
-65.883566506
 11
71.7254300495
 21
-61.683566506
  0
LINE
  5
241
100
AcDbEntity
  8
0
100
AcDbLine
 62
7
  6
CONTINUOUS
 10
79.5254300495
 20
-65.883566506
 11
79.5254300495
 21
-61.683566506
  0
LINE
  5
242
100
AcDbEntity
  8
0
100
AcDbLine
 62
7
  6
CONTINUOUS
 10
81.7254300495
 20
-65.883566506
 11
81.7254300495
 21
-61.683566506
  0
LINE
  5
243
100
AcDbEntity
  8
0
100
AcDbLine
 62
7
  6
CONTINUOUS
 10
89.5254300495
 20
-65.883566506
 11
89.5254300495
 21
-61.683566506
  0
LINE
  5
244
100
AcDbEntity
  8
0
100
AcDbLine
 62
7
  6
CONTINUOUS
 10
91.7254300495
 20
-65.883566506
 11
91.7254300495
 21
-61.683566506
  0
LINE
  5
245
100
AcDbEntity
  8
0
100
AcDbLine
 62
7
  6
CONTINUOUS
 10
99.5254300495
 20
-65.883566506
 11
99.5254300495
 21
-61.683566506
  0
LINE
  5
246
100
AcDbEntity
  8
0
100
AcDbLine
 62
7
  6
CONTINUOUS
 10
101.7254300495
 20
-65.883566506
 11
101.7254300495
 21
-61.683566506
  0
LINE
  5
247
100
AcDbEntity
  8
0
100
AcDbLine
 62
7
  6
CONTINUOUS
 10
109.5254300495
 20
-65.883566506
 11
109.5254300495
 21
-61.683566506
  0
LINE
  5
248
100
AcDbEntity
  8
0
100
AcDbLine
 62
7
  6
CONTINUOUS
 10
111.7254300495
 20
-65.883566506
 11
111.7254300495
 21
-61.683566506
  0
LINE
  5
249
100
AcDbEntity
  8
0
100
AcDbLine
 62
7
  6
CONTINUOUS
 10
241.7254300495
 20
-65.883566506
 11
239.5254300495
 21
-65.883566506
  0
LINE
  5
24A
100
AcDbEntity
  8
0
100
AcDbLine
 62
7
  6
CONTINUOUS
 10
231.7254300495
 20
-65.883566506
 11
229.5254300495
 21
-65.883566506
  0
LINE
  5
24B
100
AcDbEntity
  8
0
100
AcDbLine
 62
7
  6
CONTINUOUS
 10
221.7254300495
 20
-65.883566506
 11
219.5254300495
 21
-65.883566506
  0
LINE
  5
24C
100
AcDbEntity
  8
0
100
AcDbLine
 62
7
  6
CONTINUOUS
 10
211.7254300495
 20
-65.883566506
 11
209.5254300495
 21
-65.883566506
  0
LINE
  5
24D
100
AcDbEntity
  8
0
100
AcDbLine
 62
7
  6
CONTINUOUS
 10
201.7254300495
 20
-65.883566506
 11
199.5254300495
 21
-65.883566506
  0
LINE
  5
24E
100
AcDbEntity
  8
0
100
AcDbLine
 62
7
  6
CONTINUOUS
 10
191.7254300495
 20
-65.883566506
 11
189.5254300495
 21
-65.883566506
  0
LINE
  5
24F
100
AcDbEntity
  8
0
100
AcDbLine
 62
7
  6
CONTINUOUS
 10
181.7254300495
 20
-65.883566506
 11
179.5254300495
 21
-65.883566506
  0
LINE
  5
250
100
AcDbEntity
  8
0
100
AcDbLine
 62
7
  6
CONTINUOUS
 10
171.7254300495
 20
-65.883566506
 11
169.5254300495
 21
-65.883566506
  0
LINE
  5
251
100
AcDbEntity
  8
0
100
AcDbLine
 62
7
  6
CONTINUOUS
 10
161.7254300495
 20
-65.883566506
 11
159.5254300495
 21
-65.883566506
  0
LINE
  5
252
100
AcDbEntity
  8
0
100
AcDbLine
 62
7
  6
CONTINUOUS
 10
151.7254300495
 20
-65.883566506
 11
149.5254300495
 21
-65.883566506
  0
LINE
  5
253
100
AcDbEntity
  8
0
100
AcDbLine
 62
7
  6
CONTINUOUS
 10
141.7254300495
 20
-65.883566506
 11
139.5254300495
 21
-65.883566506
  0
LINE
  5
254
100
AcDbEntity
  8
0
100
AcDbLine
 62
7
  6
CONTINUOUS
 10
131.7254300495
 20
-65.883566506
 11
129.5254300495
 21
-65.883566506
  0
LINE
  5
255
100
AcDbEntity
  8
0
100
AcDbLine
 62
7
  6
CONTINUOUS
 10
121.7254300495
 20
-65.883566506
 11
119.5254300495
 21
-65.883566506
  0
LINE
  5
256
100
AcDbEntity
  8
0
100
AcDbLine
 62
7
  6
CONTINUOUS
 10
111.7254300495
 20
-65.883566506
 11
109.5254300495
 21
-65.883566506
  0
LINE
  5
257
100
AcDbEntity
  8
0
100
AcDbLine
 62
7
  6
CONTINUOUS
 10
101.7254300495
 20
-65.883566506
 11
99.5254300495
 21
-65.883566506
  0
LINE
  5
258
100
AcDbEntity
  8
0
100
AcDbLine
 62
7
  6
CONTINUOUS
 10
91.7254300495
 20
-65.883566506
 11
89.5254300495
 21
-65.883566506
  0
LINE
  5
259
100
AcDbEntity
  8
0
100
AcDbLine
 62
7
  6
CONTINUOUS
 10
81.7254300495
 20
-65.883566506
 11
79.5254300495
 21
-65.883566506
  0
LINE
  5
25A
100
AcDbEntity
  8
0
100
AcDbLine
 62
7
  6
CONTINUOUS
 10
71.7254300495
 20
-65.883566506
 11
69.5254300495
 21
-65.883566506
  0
LINE
  5
25B
100
AcDbEntity
  8
0
100
AcDbLine
 62
7
  6
CONTINUOUS
 10
61.7254300495
 20
-65.883566506
 11
59.5254300495
 21
-65.883566506
  0
LINE
  5
25C
100
AcDbEntity
  8
0
100
AcDbLine
 62
7
  6
CONTINUOUS
 10
51.7254300495
 20
-65.883566506
 11
49.5254300495
 21
-65.883566506
  0
LINE
  5
25D
100
AcDbEntity
  8
0
100
AcDbLine
 62
7
  6
CONTINUOUS
 10
41.7254300495
 20
-65.883566506
 11
39.5254300495
 21
-65.883566506
  0
LINE
  5
25E
100
AcDbEntity
  8
0
100
AcDbLine
 62
7
  6
CONTINUOUS
 10
31.7254300495
 20
-65.883566506
 11
29.5254300495
 21
-65.883566506
  0
LINE
  5
25F
100
AcDbEntity
  8
0
100
AcDbLine
 62
7
  6
CONTINUOUS
 10
21.7254300495
 20
-65.883566506
 11
19.5254300495
 21
-65.883566506
  0
LINE
  5
260
100
AcDbEntity
  8
0
100
AcDbLine
 62
7
  6
CONTINUOUS
 10
11.7254300495
 20
-65.883566506
 11
9.5254300495
 21
-65.883566506
  0
LINE
  5
261
100
AcDbEntity
  8
0
100
AcDbLine
 62
7
  6
CONTINUOUS
 10
1.7254300495
 20
-65.883566506
 11
-0.4745699505
 21
-65.883566506
  0
LINE
  5
262
100
AcDbEntity
  8
0
100
AcDbLine
 62
7
  6
CONTINUOUS
 10
-8.2745699505
 20
-65.883566506
 11
-10.4745699505
 21
-65.883566506
  0
LINE
  5
263
100
AcDbEntity
  8
0
100
AcDbLine
 62
7
  6
CONTINUOUS
 10
-18.2745699505
 20
-65.883566506
 11
-20.4745699505
 21
-65.883566506
  0
LINE
  5
264
100
AcDbEntity
  8
0
100
AcDbLine
 62
7
  6
CONTINUOUS
 10
-28.2745699505
 20
-65.883566506
 11
-30.4745699505
 21
-65.883566506
  0
LINE
  5
265
100
AcDbEntity
  8
0
100
AcDbLine
 62
7
  6
CONTINUOUS
 10
-38.2745699505
 20
-65.883566506
 11
-40.4745699505
 21
-65.883566506
  0
LINE
  5
266
100
AcDbEntity
  8
0
100
AcDbLine
 62
7
  6
CONTINUOUS
 10
-48.2745699505
 20
-65.883566506
 11
-50.4745699505
 21
-65.883566506
  0
LINE
  5
267
100
AcDbEntity
  8
0
100
AcDbLine
 62
7
  6
CONTINUOUS
 10
-58.2745699505
 20
-65.883566506
 11
-60.4745699505
 21
-65.883566506
  0
LINE
  5
268
100
AcDbEntity
  8
0
100
AcDbLine
 62
7
  6
CONTINUOUS
 10
241.7254300495
 20
-61.683566506
 11
239.5254300495
 21
-61.683566506
  0
LINE
  5
269
100
AcDbEntity
  8
0
100
AcDbLine
 62
7
  6
CONTINUOUS
 10
231.7254300495
 20
-61.683566506
 11
229.5254300495
 21
-61.683566506
  0
LINE
  5
26A
100
AcDbEntity
  8
0
100
AcDbLine
 62
7
  6
CONTINUOUS
 10
221.7254300495
 20
-61.683566506
 11
219.5254300495
 21
-61.683566506
  0
LINE
  5
26B
100
AcDbEntity
  8
0
100
AcDbLine
 62
7
  6
CONTINUOUS
 10
211.7254300495
 20
-61.683566506
 11
209.5254300495
 21
-61.683566506
  0
LINE
  5
26C
100
AcDbEntity
  8
0
100
AcDbLine
 62
7
  6
CONTINUOUS
 10
201.7254300495
 20
-61.683566506
 11
199.5254300495
 21
-61.683566506
  0
LINE
  5
26D
100
AcDbEntity
  8
0
100
AcDbLine
 62
7
  6
CONTINUOUS
 10
191.7254300495
 20
-61.683566506
 11
189.5254300495
 21
-61.683566506
  0
LINE
  5
26E
100
AcDbEntity
  8
0
100
AcDbLine
 62
7
  6
CONTINUOUS
 10
181.7254300495
 20
-61.683566506
 11
179.5254300495
 21
-61.683566506
  0
LINE
  5
26F
100
AcDbEntity
  8
0
100
AcDbLine
 62
7
  6
CONTINUOUS
 10
171.7254300495
 20
-61.683566506
 11
169.5254300495
 21
-61.683566506
  0
LINE
  5
270
100
AcDbEntity
  8
0
100
AcDbLine
 62
7
  6
CONTINUOUS
 10
161.7254300495
 20
-61.683566506
 11
159.5254300495
 21
-61.683566506
  0
LINE
  5
271
100
AcDbEntity
  8
0
100
AcDbLine
 62
7
  6
CONTINUOUS
 10
151.7254300495
 20
-61.683566506
 11
149.5254300495
 21
-61.683566506
  0
LINE
  5
272
100
AcDbEntity
  8
0
100
AcDbLine
 62
7
  6
CONTINUOUS
 10
141.7254300495
 20
-61.683566506
 11
139.5254300495
 21
-61.683566506
  0
LINE
  5
273
100
AcDbEntity
  8
0
100
AcDbLine
 62
7
  6
CONTINUOUS
 10
131.7254300495
 20
-61.683566506
 11
129.5254300495
 21
-61.683566506
  0
LINE
  5
274
100
AcDbEntity
  8
0
100
AcDbLine
 62
7
  6
CONTINUOUS
 10
121.7254300495
 20
-61.683566506
 11
119.5254300495
 21
-61.683566506
  0
LINE
  5
275
100
AcDbEntity
  8
0
100
AcDbLine
 62
7
  6
CONTINUOUS
 10
111.7254300495
 20
-61.683566506
 11
109.5254300495
 21
-61.683566506
  0
LINE
  5
276
100
AcDbEntity
  8
0
100
AcDbLine
 62
7
  6
CONTINUOUS
 10
101.7254300495
 20
-61.683566506
 11
99.5254300495
 21
-61.683566506
  0
LINE
  5
277
100
AcDbEntity
  8
0
100
AcDbLine
 62
7
  6
CONTINUOUS
 10
91.7254300495
 20
-61.683566506
 11
89.5254300495
 21
-61.683566506
  0
LINE
  5
278
100
AcDbEntity
  8
0
100
AcDbLine
 62
7
  6
CONTINUOUS
 10
81.7254300495
 20
-61.683566506
 11
79.5254300495
 21
-61.683566506
  0
LINE
  5
279
100
AcDbEntity
  8
0
100
AcDbLine
 62
7
  6
CONTINUOUS
 10
71.7254300495
 20
-61.683566506
 11
69.5254300495
 21
-61.683566506
  0
LINE
  5
27A
100
AcDbEntity
  8
0
100
AcDbLine
 62
7
  6
CONTINUOUS
 10
61.7254300495
 20
-61.683566506
 11
59.5254300495
 21
-61.683566506
  0
LINE
  5
27B
100
AcDbEntity
  8
0
100
AcDbLine
 62
7
  6
CONTINUOUS
 10
51.7254300495
 20
-61.683566506
 11
49.5254300495
 21
-61.683566506
  0
LINE
  5
27C
100
AcDbEntity
  8
0
100
AcDbLine
 62
7
  6
CONTINUOUS
 10
41.7254300495
 20
-61.683566506
 11
39.5254300495
 21
-61.683566506
  0
LINE
  5
27D
100
AcDbEntity
  8
0
100
AcDbLine
 62
7
  6
CONTINUOUS
 10
31.7254300495
 20
-61.683566506
 11
29.5254300495
 21
-61.683566506
  0
LINE
  5
27E
100
AcDbEntity
  8
0
100
AcDbLine
 62
7
  6
CONTINUOUS
 10
21.7254300495
 20
-61.683566506
 11
19.5254300495
 21
-61.683566506
  0
LINE
  5
27F
100
AcDbEntity
  8
0
100
AcDbLine
 62
7
  6
CONTINUOUS
 10
11.7254300495
 20
-61.683566506
 11
9.5254300495
 21
-61.683566506
  0
LINE
  5
280
100
AcDbEntity
  8
0
100
AcDbLine
 62
7
  6
CONTINUOUS
 10
1.7254300495
 20
-61.683566506
 11
-0.4745699505
 21
-61.683566506
  0
LINE
  5
281
100
AcDbEntity
  8
0
100
AcDbLine
 62
7
  6
CONTINUOUS
 10
-8.2745699505
 20
-61.683566506
 11
-10.4745699505
 21
-61.683566506
  0
LINE
  5
282
100
AcDbEntity
  8
0
100
AcDbLine
 62
7
  6
CONTINUOUS
 10
-18.2745699505
 20
-61.683566506
 11
-20.4745699505
 21
-61.683566506
  0
LINE
  5
283
100
AcDbEntity
  8
0
100
AcDbLine
 62
7
  6
CONTINUOUS
 10
-28.2745699505
 20
-61.683566506
 11
-30.4745699505
 21
-61.683566506
  0
LINE
  5
284
100
AcDbEntity
  8
0
100
AcDbLine
 62
7
  6
CONTINUOUS
 10
-38.2745699505
 20
-61.683566506
 11
-40.4745699505
 21
-61.683566506
  0
LINE
  5
285
100
AcDbEntity
  8
0
100
AcDbLine
 62
7
  6
CONTINUOUS
 10
-48.2745699505
 20
-61.683566506
 11
-50.4745699505
 21
-61.683566506
  0
LINE
  5
286
100
AcDbEntity
  8
0
100
AcDbLine
 62
7
  6
CONTINUOUS
 10
-58.2745699505
 20
-61.683566506
 11
-60.4745699505
 21
-61.683566506
  0
LINE
  5
287
100
AcDbEntity
  8
0
100
AcDbLine
 62
7
  6
CONTINUOUS
 10
119.5254300495
 20
-65.883566506
 11
119.5254300495
 21
-61.683566506
  0
LINE
  5
288
100
AcDbEntity
  8
0
100
AcDbLine
 62
7
  6
CONTINUOUS
 10
121.7254300495
 20
-65.883566506
 11
121.7254300495
 21
-61.683566506
  0
LINE
  5
289
100
AcDbEntity
  8
0
100
AcDbLine
 62
7
  6
CONTINUOUS
 10
-73.3745699505
 20
-56.883566506
 11
254.6254300495
 21
-56.883566506
  0
LINE
  5
28A
100
AcDbEntity
  8
0
100
AcDbLine
 62
7
  6
CONTINUOUS
 10
129.5254300495
 20
-65.883566506
 11
129.5254300495
 21
-61.683566506
  0
LINE
  5
28B
100
AcDbEntity
  8
0
100
AcDbLine
 62
7
  6
CONTINUOUS
 10
131.7254300495
 20
-65.883566506
 11
131.7254300495
 21
-61.683566506
  0
LINE
  5
28C
100
AcDbEntity
  8
0
100
AcDbLine
 62
7
  6
CONTINUOUS
 10
139.5254300495
 20
-65.883566506
 11
139.5254300495
 21
-61.683566506
  0
LINE
  5
28D
100
AcDbEntity
  8
0
100
AcDbLine
 62
7
  6
CONTINUOUS
 10
141.7254300495
 20
-65.883566506
 11
141.7254300495
 21
-61.683566506
  0
LINE
  5
28E
100
AcDbEntity
  8
0
100
AcDbLine
 62
7
  6
CONTINUOUS
 10
149.5254300495
 20
-65.883566506
 11
149.5254300495
 21
-61.683566506
  0
LINE
  5
28F
100
AcDbEntity
  8
0
100
AcDbLine
 62
7
  6
CONTINUOUS
 10
151.7254300495
 20
-65.883566506
 11
151.7254300495
 21
-61.683566506
  0
LINE
  5
290
100
AcDbEntity
  8
0
100
AcDbLine
 62
7
  6
CONTINUOUS
 10
159.5254300495
 20
-65.883566506
 11
159.5254300495
 21
-61.683566506
  0
LINE
  5
291
100
AcDbEntity
  8
0
100
AcDbLine
 62
7
  6
CONTINUOUS
 10
161.7254300495
 20
-65.883566506
 11
161.7254300495
 21
-61.683566506
  0
LINE
  5
292
100
AcDbEntity
  8
0
100
AcDbLine
 62
7
  6
CONTINUOUS
 10
169.5254300495
 20
-65.883566506
 11
169.5254300495
 21
-61.683566506
  0
LINE
  5
293
100
AcDbEntity
  8
0
100
AcDbLine
 62
7
  6
CONTINUOUS
 10
171.7254300495
 20
-65.883566506
 11
171.7254300495
 21
-61.683566506
  0
LINE
  5
294
100
AcDbEntity
  8
0
100
AcDbLine
 62
7
  6
CONTINUOUS
 10
179.5254300495
 20
-65.883566506
 11
179.5254300495
 21
-61.683566506
  0
LINE
  5
295
100
AcDbEntity
  8
0
100
AcDbLine
 62
7
  6
CONTINUOUS
 10
181.7254300495
 20
-65.883566506
 11
181.7254300495
 21
-61.683566506
  0
LINE
  5
296
100
AcDbEntity
  8
0
100
AcDbLine
 62
7
  6
CONTINUOUS
 10
189.5254300495
 20
-65.883566506
 11
189.5254300495
 21
-61.683566506
  0
LINE
  5
297
100
AcDbEntity
  8
0
100
AcDbLine
 62
7
  6
CONTINUOUS
 10
191.7254300495
 20
-65.883566506
 11
191.7254300495
 21
-61.683566506
  0
LINE
  5
298
100
AcDbEntity
  8
0
100
AcDbLine
 62
7
  6
CONTINUOUS
 10
199.5254300495
 20
-65.883566506
 11
199.5254300495
 21
-61.683566506
  0
LINE
  5
299
100
AcDbEntity
  8
0
100
AcDbLine
 62
7
  6
CONTINUOUS
 10
201.7254300495
 20
-65.883566506
 11
201.7254300495
 21
-61.683566506
  0
LINE
  5
29A
100
AcDbEntity
  8
0
100
AcDbLine
 62
7
  6
CONTINUOUS
 10
209.5254300495
 20
-65.883566506
 11
209.5254300495
 21
-61.683566506
  0
LINE
  5
29B
100
AcDbEntity
  8
0
100
AcDbLine
 62
7
  6
CONTINUOUS
 10
211.7254300495
 20
-65.883566506
 11
211.7254300495
 21
-61.683566506
  0
LINE
  5
29C
100
AcDbEntity
  8
0
100
AcDbLine
 62
7
  6
CONTINUOUS
 10
219.5254300495
 20
-65.883566506
 11
219.5254300495
 21
-61.683566506
  0
LINE
  5
29D
100
AcDbEntity
  8
0
100
AcDbLine
 62
7
  6
CONTINUOUS
 10
221.7254300495
 20
-65.883566506
 11
221.7254300495
 21
-61.683566506
  0
LINE
  5
29E
100
AcDbEntity
  8
0
100
AcDbLine
 62
7
  6
CONTINUOUS
 10
229.5254300495
 20
-65.883566506
 11
229.5254300495
 21
-61.683566506
  0
LINE
  5
29F
100
AcDbEntity
  8
0
100
AcDbLine
 62
7
  6
CONTINUOUS
 10
231.7254300495
 20
-65.883566506
 11
231.7254300495
 21
-61.683566506
  0
LINE
  5
2A0
100
AcDbEntity
  8
0
100
AcDbLine
 62
7
  6
CONTINUOUS
 10
239.5254300495
 20
-65.883566506
 11
239.5254300495
 21
-61.683566506
  0
LINE
  5
2A1
100
AcDbEntity
  8
0
100
AcDbLine
 62
7
  6
CONTINUOUS
 10
241.7254300495
 20
-65.883566506
 11
241.7254300495
 21
-61.683566506
  0
LINE
  5
2A2
100
AcDbEntity
  8
0
100
AcDbLine
 62
7
  6
CONTINUOUS
 10
254.6254300495
 20
-56.883566506
 11
254.6254300495
 21
-111.883566506
  0
LINE
  5
2A3
100
AcDbEntity
  8
0
100
AcDbLine
 62
7
  6
CONTINUOUS
 10
-73.3745699505
 20
-173.4374002324
 11
-73.3745699505
 21
-118.4374002324
  0
LINE
  5
2A4
100
AcDbEntity
  8
0
100
AcDbLine
 62
7
  6
CONTINUOUS
 10
-60.4745699505
 20
-127.4374002324
 11
-60.4745699505
 21
-123.2374002324
  0
LINE
  5
2A5
100
AcDbEntity
  8
0
100
AcDbLine
 62
7
  6
CONTINUOUS
 10
-58.2745699505
 20
-127.4374002324
 11
-58.2745699505
 21
-123.2374002324
  0
LINE
  5
2A6
100
AcDbEntity
  8
0
100
AcDbLine
 62
7
  6
CONTINUOUS
 10
-50.4745699505
 20
-127.4374002324
 11
-50.4745699505
 21
-123.2374002324
  0
LINE
  5
2A7
100
AcDbEntity
  8
0
100
AcDbLine
 62
7
  6
CONTINUOUS
 10
-48.2745699505
 20
-127.4374002324
 11
-48.2745699505
 21
-123.2374002324
  0
LINE
  5
2A8
100
AcDbEntity
  8
0
100
AcDbLine
 62
7
  6
CONTINUOUS
 10
-40.4745699505
 20
-127.4374002324
 11
-40.4745699505
 21
-123.2374002324
  0
LINE
  5
2A9
100
AcDbEntity
  8
0
100
AcDbLine
 62
7
  6
CONTINUOUS
 10
-38.2745699505
 20
-127.4374002324
 11
-38.2745699505
 21
-123.2374002324
  0
LINE
  5
2AA
100
AcDbEntity
  8
0
100
AcDbLine
 62
7
  6
CONTINUOUS
 10
-30.4745699505
 20
-127.4374002324
 11
-30.4745699505
 21
-123.2374002324
  0
LINE
  5
2AB
100
AcDbEntity
  8
0
100
AcDbLine
 62
7
  6
CONTINUOUS
 10
-28.2745699505
 20
-127.4374002324
 11
-28.2745699505
 21
-123.2374002324
  0
LINE
  5
2AC
100
AcDbEntity
  8
0
100
AcDbLine
 62
7
  6
CONTINUOUS
 10
-20.4745699505
 20
-127.4374002324
 11
-20.4745699505
 21
-123.2374002324
  0
LINE
  5
2AD
100
AcDbEntity
  8
0
100
AcDbLine
 62
7
  6
CONTINUOUS
 10
-18.2745699505
 20
-127.4374002324
 11
-18.2745699505
 21
-123.2374002324
  0
LINE
  5
2AE
100
AcDbEntity
  8
0
100
AcDbLine
 62
7
  6
CONTINUOUS
 10
-10.4745699505
 20
-127.4374002324
 11
-10.4745699505
 21
-123.2374002324
  0
LINE
  5
2AF
100
AcDbEntity
  8
0
100
AcDbLine
 62
7
  6
CONTINUOUS
 10
-8.2745699505
 20
-127.4374002324
 11
-8.2745699505
 21
-123.2374002324
  0
LINE
  5
2B0
100
AcDbEntity
  8
0
100
AcDbLine
 62
7
  6
CONTINUOUS
 10
-0.4745699505
 20
-127.4374002324
 11
-0.4745699505
 21
-123.2374002324
  0
LINE
  5
2B1
100
AcDbEntity
  8
0
100
AcDbLine
 62
7
  6
CONTINUOUS
 10
1.7254300495
 20
-127.4374002324
 11
1.7254300495
 21
-123.2374002324
  0
LINE
  5
2B2
100
AcDbEntity
  8
0
100
AcDbLine
 62
7
  6
CONTINUOUS
 10
9.5254300495
 20
-127.4374002324
 11
9.5254300495
 21
-123.2374002324
  0
LINE
  5
2B3
100
AcDbEntity
  8
0
100
AcDbLine
 62
7
  6
CONTINUOUS
 10
11.7254300495
 20
-127.4374002324
 11
11.7254300495
 21
-123.2374002324
  0
LINE
  5
2B4
100
AcDbEntity
  8
0
100
AcDbLine
 62
7
  6
CONTINUOUS
 10
19.5254300495
 20
-127.4374002324
 11
19.5254300495
 21
-123.2374002324
  0
LINE
  5
2B5
100
AcDbEntity
  8
0
100
AcDbLine
 62
7
  6
CONTINUOUS
 10
21.7254300495
 20
-127.4374002324
 11
21.7254300495
 21
-123.2374002324
  0
LINE
  5
2B6
100
AcDbEntity
  8
0
100
AcDbLine
 62
7
  6
CONTINUOUS
 10
29.5254300495
 20
-127.4374002324
 11
29.5254300495
 21
-123.2374002324
  0
LINE
  5
2B7
100
AcDbEntity
  8
0
100
AcDbLine
 62
7
  6
CONTINUOUS
 10
31.7254300495
 20
-127.4374002324
 11
31.7254300495
 21
-123.2374002324
  0
LINE
  5
2B8
100
AcDbEntity
  8
0
100
AcDbLine
 62
7
  6
CONTINUOUS
 10
39.5254300495
 20
-127.4374002324
 11
39.5254300495
 21
-123.2374002324
  0
LINE
  5
2B9
100
AcDbEntity
  8
0
100
AcDbLine
 62
7
  6
CONTINUOUS
 10
41.7254300495
 20
-127.4374002324
 11
41.7254300495
 21
-123.2374002324
  0
LINE
  5
2BA
100
AcDbEntity
  8
0
100
AcDbLine
 62
7
  6
CONTINUOUS
 10
49.5254300495
 20
-127.4374002324
 11
49.5254300495
 21
-123.2374002324
  0
LINE
  5
2BB
100
AcDbEntity
  8
0
100
AcDbLine
 62
7
  6
CONTINUOUS
 10
51.7254300495
 20
-127.4374002324
 11
51.7254300495
 21
-123.2374002324
  0
LINE
  5
2BC
100
AcDbEntity
  8
0
100
AcDbLine
 62
7
  6
CONTINUOUS
 10
59.5254300495
 20
-127.4374002324
 11
59.5254300495
 21
-123.2374002324
  0
LINE
  5
2BD
100
AcDbEntity
  8
0
100
AcDbLine
 62
7
  6
CONTINUOUS
 10
61.7254300495
 20
-127.4374002324
 11
61.7254300495
 21
-123.2374002324
  0
LINE
  5
2BE
100
AcDbEntity
  8
0
100
AcDbLine
 62
7
  6
CONTINUOUS
 10
69.5254300495
 20
-127.4374002324
 11
69.5254300495
 21
-123.2374002324
  0
LINE
  5
2BF
100
AcDbEntity
  8
0
100
AcDbLine
 62
7
  6
CONTINUOUS
 10
254.6254300495
 20
-173.4374002324
 11
-73.3745699505
 21
-173.4374002324
  0
LINE
  5
2C0
100
AcDbEntity
  8
0
100
AcDbLine
 62
7
  6
CONTINUOUS
 10
71.7254300495
 20
-127.4374002324
 11
71.7254300495
 21
-123.2374002324
  0
LINE
  5
2C1
100
AcDbEntity
  8
0
100
AcDbLine
 62
7
  6
CONTINUOUS
 10
79.5254300495
 20
-127.4374002324
 11
79.5254300495
 21
-123.2374002324
  0
LINE
  5
2C2
100
AcDbEntity
  8
0
100
AcDbLine
 62
7
  6
CONTINUOUS
 10
90.4754300495
 20
-161.3874002324
 11
110.9254300495
 21
-161.3874002324
  0
LINE
  5
2C3
100
AcDbEntity
  8
0
100
AcDbLine
 62
7
  6
CONTINUOUS
 10
81.7254300495
 20
-127.4374002324
 11
81.7254300495
 21
-123.2374002324
  0
LINE
  5
2C4
100
AcDbEntity
  8
0
100
AcDbLine
 62
7
  6
CONTINUOUS
 10
89.5254300495
 20
-127.4374002324
 11
89.5254300495
 21
-123.2374002324
  0
LINE
  5
2C5
100
AcDbEntity
  8
0
100
AcDbLine
 62
7
  6
CONTINUOUS
 10
90.4754300495
 20
-145.7874002324
 11
90.4754300495
 21
-161.3874002324
  0
LINE
  5
2C6
100
AcDbEntity
  8
0
100
AcDbLine
 62
7
  6
CONTINUOUS
 10
91.7254300495
 20
-127.4374002324
 11
91.7254300495
 21
-123.2374002324
  0
LINE
  5
2C7
100
AcDbEntity
  8
0
100
AcDbLine
 62
7
  6
CONTINUOUS
 10
110.9254300495
 20
-145.7874002324
 11
90.4754300495
 21
-145.7874002324
  0
LINE
  5
2C8
100
AcDbEntity
  8
0
100
AcDbLine
 62
7
  6
CONTINUOUS
 10
99.5254300495
 20
-127.4374002324
 11
99.5254300495
 21
-123.2374002324
  0
LINE
  5
2C9
100
AcDbEntity
  8
0
100
AcDbLine
 62
7
  6
CONTINUOUS
 10
101.7254300495
 20
-127.4374002324
 11
101.7254300495
 21
-123.2374002324
  0
LINE
  5
2CA
100
AcDbEntity
  8
0
100
AcDbLine
 62
7
  6
CONTINUOUS
 10
109.5254300495
 20
-127.4374002324
 11
109.5254300495
 21
-123.2374002324
  0
LINE
  5
2CB
100
AcDbEntity
  8
0
100
AcDbLine
 62
7
  6
CONTINUOUS
 10
110.9254300495
 20
-161.3874002324
 11
110.9254300495
 21
-145.7874002324
  0
LINE
  5
2CC
100
AcDbEntity
  8
0
100
AcDbLine
 62
7
  6
CONTINUOUS
 10
111.7254300495
 20
-127.4374002324
 11
111.7254300495
 21
-123.2374002324
  0
LINE
  5
2CD
100
AcDbEntity
  8
0
100
AcDbLine
 62
7
  6
CONTINUOUS
 10
241.7254300495
 20
-127.4374002324
 11
239.5254300495
 21
-127.4374002324
  0
LINE
  5
2CE
100
AcDbEntity
  8
0
100
AcDbLine
 62
7
  6
CONTINUOUS
 10
231.7254300495
 20
-127.4374002324
 11
229.5254300495
 21
-127.4374002324
  0
LINE
  5
2CF
100
AcDbEntity
  8
0
100
AcDbLine
 62
7
  6
CONTINUOUS
 10
221.7254300495
 20
-127.4374002324
 11
219.5254300495
 21
-127.4374002324
  0
LINE
  5
2D0
100
AcDbEntity
  8
0
100
AcDbLine
 62
7
  6
CONTINUOUS
 10
211.7254300495
 20
-127.4374002324
 11
209.5254300495
 21
-127.4374002324
  0
LINE
  5
2D1
100
AcDbEntity
  8
0
100
AcDbLine
 62
7
  6
CONTINUOUS
 10
201.7254300495
 20
-127.4374002324
 11
199.5254300495
 21
-127.4374002324
  0
LINE
  5
2D2
100
AcDbEntity
  8
0
100
AcDbLine
 62
7
  6
CONTINUOUS
 10
191.7254300495
 20
-127.4374002324
 11
189.5254300495
 21
-127.4374002324
  0
LINE
  5
2D3
100
AcDbEntity
  8
0
100
AcDbLine
 62
7
  6
CONTINUOUS
 10
181.7254300495
 20
-127.4374002324
 11
179.5254300495
 21
-127.4374002324
  0
LINE
  5
2D4
100
AcDbEntity
  8
0
100
AcDbLine
 62
7
  6
CONTINUOUS
 10
171.7254300495
 20
-127.4374002324
 11
169.5254300495
 21
-127.4374002324
  0
LINE
  5
2D5
100
AcDbEntity
  8
0
100
AcDbLine
 62
7
  6
CONTINUOUS
 10
161.7254300495
 20
-127.4374002324
 11
159.5254300495
 21
-127.4374002324
  0
LINE
  5
2D6
100
AcDbEntity
  8
0
100
AcDbLine
 62
7
  6
CONTINUOUS
 10
151.7254300495
 20
-127.4374002324
 11
149.5254300495
 21
-127.4374002324
  0
LINE
  5
2D7
100
AcDbEntity
  8
0
100
AcDbLine
 62
7
  6
CONTINUOUS
 10
141.7254300495
 20
-127.4374002324
 11
139.5254300495
 21
-127.4374002324
  0
LINE
  5
2D8
100
AcDbEntity
  8
0
100
AcDbLine
 62
7
  6
CONTINUOUS
 10
131.7254300495
 20
-127.4374002324
 11
129.5254300495
 21
-127.4374002324
  0
LINE
  5
2D9
100
AcDbEntity
  8
0
100
AcDbLine
 62
7
  6
CONTINUOUS
 10
121.7254300495
 20
-127.4374002324
 11
119.5254300495
 21
-127.4374002324
  0
LINE
  5
2DA
100
AcDbEntity
  8
0
100
AcDbLine
 62
7
  6
CONTINUOUS
 10
111.7254300495
 20
-127.4374002324
 11
109.5254300495
 21
-127.4374002324
  0
LINE
  5
2DB
100
AcDbEntity
  8
0
100
AcDbLine
 62
7
  6
CONTINUOUS
 10
101.7254300495
 20
-127.4374002324
 11
99.5254300495
 21
-127.4374002324
  0
LINE
  5
2DC
100
AcDbEntity
  8
0
100
AcDbLine
 62
7
  6
CONTINUOUS
 10
91.7254300495
 20
-127.4374002324
 11
89.5254300495
 21
-127.4374002324
  0
LINE
  5
2DD
100
AcDbEntity
  8
0
100
AcDbLine
 62
7
  6
CONTINUOUS
 10
81.7254300495
 20
-127.4374002324
 11
79.5254300495
 21
-127.4374002324
  0
LINE
  5
2DE
100
AcDbEntity
  8
0
100
AcDbLine
 62
7
  6
CONTINUOUS
 10
71.7254300495
 20
-127.4374002324
 11
69.5254300495
 21
-127.4374002324
  0
LINE
  5
2DF
100
AcDbEntity
  8
0
100
AcDbLine
 62
7
  6
CONTINUOUS
 10
61.7254300495
 20
-127.4374002324
 11
59.5254300495
 21
-127.4374002324
  0
LINE
  5
2E0
100
AcDbEntity
  8
0
100
AcDbLine
 62
7
  6
CONTINUOUS
 10
51.7254300495
 20
-127.4374002324
 11
49.5254300495
 21
-127.4374002324
  0
LINE
  5
2E1
100
AcDbEntity
  8
0
100
AcDbLine
 62
7
  6
CONTINUOUS
 10
41.7254300495
 20
-127.4374002324
 11
39.5254300495
 21
-127.4374002324
  0
LINE
  5
2E2
100
AcDbEntity
  8
0
100
AcDbLine
 62
7
  6
CONTINUOUS
 10
31.7254300495
 20
-127.4374002324
 11
29.5254300495
 21
-127.4374002324
  0
LINE
  5
2E3
100
AcDbEntity
  8
0
100
AcDbLine
 62
7
  6
CONTINUOUS
 10
21.7254300495
 20
-127.4374002324
 11
19.5254300495
 21
-127.4374002324
  0
LINE
  5
2E4
100
AcDbEntity
  8
0
100
AcDbLine
 62
7
  6
CONTINUOUS
 10
11.7254300495
 20
-127.4374002324
 11
9.5254300495
 21
-127.4374002324
  0
LINE
  5
2E5
100
AcDbEntity
  8
0
100
AcDbLine
 62
7
  6
CONTINUOUS
 10
1.7254300495
 20
-127.4374002324
 11
-0.4745699505
 21
-127.4374002324
  0
LINE
  5
2E6
100
AcDbEntity
  8
0
100
AcDbLine
 62
7
  6
CONTINUOUS
 10
-8.2745699505
 20
-127.4374002324
 11
-10.4745699505
 21
-127.4374002324
  0
LINE
  5
2E7
100
AcDbEntity
  8
0
100
AcDbLine
 62
7
  6
CONTINUOUS
 10
-18.2745699505
 20
-127.4374002324
 11
-20.4745699505
 21
-127.4374002324
  0
LINE
  5
2E8
100
AcDbEntity
  8
0
100
AcDbLine
 62
7
  6
CONTINUOUS
 10
-28.2745699505
 20
-127.4374002324
 11
-30.4745699505
 21
-127.4374002324
  0
LINE
  5
2E9
100
AcDbEntity
  8
0
100
AcDbLine
 62
7
  6
CONTINUOUS
 10
-38.2745699505
 20
-127.4374002324
 11
-40.4745699505
 21
-127.4374002324
  0
LINE
  5
2EA
100
AcDbEntity
  8
0
100
AcDbLine
 62
7
  6
CONTINUOUS
 10
-48.2745699505
 20
-127.4374002324
 11
-50.4745699505
 21
-127.4374002324
  0
LINE
  5
2EB
100
AcDbEntity
  8
0
100
AcDbLine
 62
7
  6
CONTINUOUS
 10
-58.2745699505
 20
-127.4374002324
 11
-60.4745699505
 21
-127.4374002324
  0
LINE
  5
2EC
100
AcDbEntity
  8
0
100
AcDbLine
 62
7
  6
CONTINUOUS
 10
241.7254300495
 20
-123.2374002324
 11
239.5254300495
 21
-123.2374002324
  0
LINE
  5
2ED
100
AcDbEntity
  8
0
100
AcDbLine
 62
7
  6
CONTINUOUS
 10
231.7254300495
 20
-123.2374002324
 11
229.5254300495
 21
-123.2374002324
  0
LINE
  5
2EE
100
AcDbEntity
  8
0
100
AcDbLine
 62
7
  6
CONTINUOUS
 10
221.7254300495
 20
-123.2374002324
 11
219.5254300495
 21
-123.2374002324
  0
LINE
  5
2EF
100
AcDbEntity
  8
0
100
AcDbLine
 62
7
  6
CONTINUOUS
 10
211.7254300495
 20
-123.2374002324
 11
209.5254300495
 21
-123.2374002324
  0
LINE
  5
2F0
100
AcDbEntity
  8
0
100
AcDbLine
 62
7
  6
CONTINUOUS
 10
201.7254300495
 20
-123.2374002324
 11
199.5254300495
 21
-123.2374002324
  0
LINE
  5
2F1
100
AcDbEntity
  8
0
100
AcDbLine
 62
7
  6
CONTINUOUS
 10
191.7254300495
 20
-123.2374002324
 11
189.5254300495
 21
-123.2374002324
  0
LINE
  5
2F2
100
AcDbEntity
  8
0
100
AcDbLine
 62
7
  6
CONTINUOUS
 10
181.7254300495
 20
-123.2374002324
 11
179.5254300495
 21
-123.2374002324
  0
LINE
  5
2F3
100
AcDbEntity
  8
0
100
AcDbLine
 62
7
  6
CONTINUOUS
 10
171.7254300495
 20
-123.2374002324
 11
169.5254300495
 21
-123.2374002324
  0
LINE
  5
2F4
100
AcDbEntity
  8
0
100
AcDbLine
 62
7
  6
CONTINUOUS
 10
161.7254300495
 20
-123.2374002324
 11
159.5254300495
 21
-123.2374002324
  0
LINE
  5
2F5
100
AcDbEntity
  8
0
100
AcDbLine
 62
7
  6
CONTINUOUS
 10
151.7254300495
 20
-123.2374002324
 11
149.5254300495
 21
-123.2374002324
  0
LINE
  5
2F6
100
AcDbEntity
  8
0
100
AcDbLine
 62
7
  6
CONTINUOUS
 10
141.7254300495
 20
-123.2374002324
 11
139.5254300495
 21
-123.2374002324
  0
LINE
  5
2F7
100
AcDbEntity
  8
0
100
AcDbLine
 62
7
  6
CONTINUOUS
 10
131.7254300495
 20
-123.2374002324
 11
129.5254300495
 21
-123.2374002324
  0
LINE
  5
2F8
100
AcDbEntity
  8
0
100
AcDbLine
 62
7
  6
CONTINUOUS
 10
121.7254300495
 20
-123.2374002324
 11
119.5254300495
 21
-123.2374002324
  0
LINE
  5
2F9
100
AcDbEntity
  8
0
100
AcDbLine
 62
7
  6
CONTINUOUS
 10
111.7254300495
 20
-123.2374002324
 11
109.5254300495
 21
-123.2374002324
  0
LINE
  5
2FA
100
AcDbEntity
  8
0
100
AcDbLine
 62
7
  6
CONTINUOUS
 10
101.7254300495
 20
-123.2374002324
 11
99.5254300495
 21
-123.2374002324
  0
LINE
  5
2FB
100
AcDbEntity
  8
0
100
AcDbLine
 62
7
  6
CONTINUOUS
 10
91.7254300495
 20
-123.2374002324
 11
89.5254300495
 21
-123.2374002324
  0
LINE
  5
2FC
100
AcDbEntity
  8
0
100
AcDbLine
 62
7
  6
CONTINUOUS
 10
81.7254300495
 20
-123.2374002324
 11
79.5254300495
 21
-123.2374002324
  0
LINE
  5
2FD
100
AcDbEntity
  8
0
100
AcDbLine
 62
7
  6
CONTINUOUS
 10
71.7254300495
 20
-123.2374002324
 11
69.5254300495
 21
-123.2374002324
  0
LINE
  5
2FE
100
AcDbEntity
  8
0
100
AcDbLine
 62
7
  6
CONTINUOUS
 10
61.7254300495
 20
-123.2374002324
 11
59.5254300495
 21
-123.2374002324
  0
LINE
  5
2FF
100
AcDbEntity
  8
0
100
AcDbLine
 62
7
  6
CONTINUOUS
 10
51.7254300495
 20
-123.2374002324
 11
49.5254300495
 21
-123.2374002324
  0
LINE
  5
300
100
AcDbEntity
  8
0
100
AcDbLine
 62
7
  6
CONTINUOUS
 10
41.7254300495
 20
-123.2374002324
 11
39.5254300495
 21
-123.2374002324
  0
LINE
  5
301
100
AcDbEntity
  8
0
100
AcDbLine
 62
7
  6
CONTINUOUS
 10
31.7254300495
 20
-123.2374002324
 11
29.5254300495
 21
-123.2374002324
  0
LINE
  5
302
100
AcDbEntity
  8
0
100
AcDbLine
 62
7
  6
CONTINUOUS
 10
21.7254300495
 20
-123.2374002324
 11
19.5254300495
 21
-123.2374002324
  0
LINE
  5
303
100
AcDbEntity
  8
0
100
AcDbLine
 62
7
  6
CONTINUOUS
 10
11.7254300495
 20
-123.2374002324
 11
9.5254300495
 21
-123.2374002324
  0
LINE
  5
304
100
AcDbEntity
  8
0
100
AcDbLine
 62
7
  6
CONTINUOUS
 10
1.7254300495
 20
-123.2374002324
 11
-0.4745699505
 21
-123.2374002324
  0
LINE
  5
305
100
AcDbEntity
  8
0
100
AcDbLine
 62
7
  6
CONTINUOUS
 10
-8.2745699505
 20
-123.2374002324
 11
-10.4745699505
 21
-123.2374002324
  0
LINE
  5
306
100
AcDbEntity
  8
0
100
AcDbLine
 62
7
  6
CONTINUOUS
 10
-18.2745699505
 20
-123.2374002324
 11
-20.4745699505
 21
-123.2374002324
  0
LINE
  5
307
100
AcDbEntity
  8
0
100
AcDbLine
 62
7
  6
CONTINUOUS
 10
-28.2745699505
 20
-123.2374002324
 11
-30.4745699505
 21
-123.2374002324
  0
LINE
  5
308
100
AcDbEntity
  8
0
100
AcDbLine
 62
7
  6
CONTINUOUS
 10
-38.2745699505
 20
-123.2374002324
 11
-40.4745699505
 21
-123.2374002324
  0
LINE
  5
309
100
AcDbEntity
  8
0
100
AcDbLine
 62
7
  6
CONTINUOUS
 10
-48.2745699505
 20
-123.2374002324
 11
-50.4745699505
 21
-123.2374002324
  0
LINE
  5
30A
100
AcDbEntity
  8
0
100
AcDbLine
 62
7
  6
CONTINUOUS
 10
-58.2745699505
 20
-123.2374002324
 11
-60.4745699505
 21
-123.2374002324
  0
LINE
  5
30B
100
AcDbEntity
  8
0
100
AcDbLine
 62
7
  6
CONTINUOUS
 10
119.5254300495
 20
-127.4374002324
 11
119.5254300495
 21
-123.2374002324
  0
LINE
  5
30C
100
AcDbEntity
  8
0
100
AcDbLine
 62
7
  6
CONTINUOUS
 10
121.7254300495
 20
-127.4374002324
 11
121.7254300495
 21
-123.2374002324
  0
LINE
  5
30D
100
AcDbEntity
  8
0
100
AcDbLine
 62
7
  6
CONTINUOUS
 10
-73.3745699505
 20
-118.4374002324
 11
254.6254300495
 21
-118.4374002324
  0
LINE
  5
30E
100
AcDbEntity
  8
0
100
AcDbLine
 62
7
  6
CONTINUOUS
 10
129.5254300495
 20
-127.4374002324
 11
129.5254300495
 21
-123.2374002324
  0
LINE
  5
30F
100
AcDbEntity
  8
0
100
AcDbLine
 62
7
  6
CONTINUOUS
 10
131.7254300495
 20
-127.4374002324
 11
131.7254300495
 21
-123.2374002324
  0
LINE
  5
310
100
AcDbEntity
  8
0
100
AcDbLine
 62
7
  6
CONTINUOUS
 10
139.5254300495
 20
-127.4374002324
 11
139.5254300495
 21
-123.2374002324
  0
LINE
  5
311
100
AcDbEntity
  8
0
100
AcDbLine
 62
7
  6
CONTINUOUS
 10
141.7254300495
 20
-127.4374002324
 11
141.7254300495
 21
-123.2374002324
  0
LINE
  5
312
100
AcDbEntity
  8
0
100
AcDbLine
 62
7
  6
CONTINUOUS
 10
149.5254300495
 20
-127.4374002324
 11
149.5254300495
 21
-123.2374002324
  0
LINE
  5
313
100
AcDbEntity
  8
0
100
AcDbLine
 62
7
  6
CONTINUOUS
 10
151.7254300495
 20
-127.4374002324
 11
151.7254300495
 21
-123.2374002324
  0
LINE
  5
314
100
AcDbEntity
  8
0
100
AcDbLine
 62
7
  6
CONTINUOUS
 10
159.5254300495
 20
-127.4374002324
 11
159.5254300495
 21
-123.2374002324
  0
LINE
  5
315
100
AcDbEntity
  8
0
100
AcDbLine
 62
7
  6
CONTINUOUS
 10
161.7254300495
 20
-127.4374002324
 11
161.7254300495
 21
-123.2374002324
  0
LINE
  5
316
100
AcDbEntity
  8
0
100
AcDbLine
 62
7
  6
CONTINUOUS
 10
169.5254300495
 20
-127.4374002324
 11
169.5254300495
 21
-123.2374002324
  0
LINE
  5
317
100
AcDbEntity
  8
0
100
AcDbLine
 62
7
  6
CONTINUOUS
 10
171.7254300495
 20
-127.4374002324
 11
171.7254300495
 21
-123.2374002324
  0
LINE
  5
318
100
AcDbEntity
  8
0
100
AcDbLine
 62
7
  6
CONTINUOUS
 10
179.5254300495
 20
-127.4374002324
 11
179.5254300495
 21
-123.2374002324
  0
LINE
  5
319
100
AcDbEntity
  8
0
100
AcDbLine
 62
7
  6
CONTINUOUS
 10
181.7254300495
 20
-127.4374002324
 11
181.7254300495
 21
-123.2374002324
  0
LINE
  5
31A
100
AcDbEntity
  8
0
100
AcDbLine
 62
7
  6
CONTINUOUS
 10
189.5254300495
 20
-127.4374002324
 11
189.5254300495
 21
-123.2374002324
  0
LINE
  5
31B
100
AcDbEntity
  8
0
100
AcDbLine
 62
7
  6
CONTINUOUS
 10
191.7254300495
 20
-127.4374002324
 11
191.7254300495
 21
-123.2374002324
  0
LINE
  5
31C
100
AcDbEntity
  8
0
100
AcDbLine
 62
7
  6
CONTINUOUS
 10
199.5254300495
 20
-127.4374002324
 11
199.5254300495
 21
-123.2374002324
  0
LINE
  5
31D
100
AcDbEntity
  8
0
100
AcDbLine
 62
7
  6
CONTINUOUS
 10
201.7254300495
 20
-127.4374002324
 11
201.7254300495
 21
-123.2374002324
  0
LINE
  5
31E
100
AcDbEntity
  8
0
100
AcDbLine
 62
7
  6
CONTINUOUS
 10
209.5254300495
 20
-127.4374002324
 11
209.5254300495
 21
-123.2374002324
  0
LINE
  5
31F
100
AcDbEntity
  8
0
100
AcDbLine
 62
7
  6
CONTINUOUS
 10
211.7254300495
 20
-127.4374002324
 11
211.7254300495
 21
-123.2374002324
  0
LINE
  5
320
100
AcDbEntity
  8
0
100
AcDbLine
 62
7
  6
CONTINUOUS
 10
219.5254300495
 20
-127.4374002324
 11
219.5254300495
 21
-123.2374002324
  0
LINE
  5
321
100
AcDbEntity
  8
0
100
AcDbLine
 62
7
  6
CONTINUOUS
 10
221.7254300495
 20
-127.4374002324
 11
221.7254300495
 21
-123.2374002324
  0
LINE
  5
322
100
AcDbEntity
  8
0
100
AcDbLine
 62
7
  6
CONTINUOUS
 10
229.5254300495
 20
-127.4374002324
 11
229.5254300495
 21
-123.2374002324
  0
LINE
  5
323
100
AcDbEntity
  8
0
100
AcDbLine
 62
7
  6
CONTINUOUS
 10
231.7254300495
 20
-127.4374002324
 11
231.7254300495
 21
-123.2374002324
  0
LINE
  5
324
100
AcDbEntity
  8
0
100
AcDbLine
 62
7
  6
CONTINUOUS
 10
239.5254300495
 20
-127.4374002324
 11
239.5254300495
 21
-123.2374002324
  0
LINE
  5
325
100
AcDbEntity
  8
0
100
AcDbLine
 62
7
  6
CONTINUOUS
 10
241.7254300495
 20
-127.4374002324
 11
241.7254300495
 21
-123.2374002324
  0
LINE
  5
326
100
AcDbEntity
  8
0
100
AcDbLine
 62
7
  6
CONTINUOUS
 10
254.6254300495
 20
-118.4374002324
 11
254.6254300495
 21
-173.4374002324
  0
LINE
  5
327
100
AcDbEntity
  8
0
100
AcDbLine
 62
7
  6
CONTINUOUS
 10
-73.3745699505
 20
130.2908429044
 11
-73.3745699505
 21
185.2908429044
  0
LINE
  5
328
100
AcDbEntity
  8
0
100
AcDbLine
 62
7
  6
CONTINUOUS
 10
-60.0138341982
 20
139.2908429044
 11
-60.0138341982
 21
135.0908429044
  0
LINE
  5
329
100
AcDbEntity
  8
0
100
AcDbLine
 62
7
  6
CONTINUOUS
 10
-57.8138341982
 20
139.2908429044
 11
-57.8138341982
 21
135.0908429044
  0
LINE
  5
32A
100
AcDbEntity
  8
0
100
AcDbLine
 62
7
  6
CONTINUOUS
 10
-50.0138341982
 20
139.2908429044
 11
-50.0138341982
 21
135.0908429044
  0
LINE
  5
32B
100
AcDbEntity
  8
0
100
AcDbLine
 62
7
  6
CONTINUOUS
 10
-47.8138341982
 20
139.2908429044
 11
-47.8138341982
 21
135.0908429044
  0
LINE
  5
32C
100
AcDbEntity
  8
0
100
AcDbLine
 62
7
  6
CONTINUOUS
 10
-40.0138341982
 20
139.2908429044
 11
-40.0138341982
 21
135.0908429044
  0
LINE
  5
32D
100
AcDbEntity
  8
0
100
AcDbLine
 62
7
  6
CONTINUOUS
 10
-37.8138341982
 20
139.2908429044
 11
-37.8138341982
 21
135.0908429044
  0
LINE
  5
32E
100
AcDbEntity
  8
0
100
AcDbLine
 62
7
  6
CONTINUOUS
 10
-30.0138341982
 20
139.2908429044
 11
-30.0138341982
 21
135.0908429044
  0
LINE
  5
32F
100
AcDbEntity
  8
0
100
AcDbLine
 62
7
  6
CONTINUOUS
 10
-27.8138341982
 20
139.2908429044
 11
-27.8138341982
 21
135.0908429044
  0
LINE
  5
330
100
AcDbEntity
  8
0
100
AcDbLine
 62
7
  6
CONTINUOUS
 10
-20.0138341982
 20
139.2908429044
 11
-20.0138341982
 21
135.0908429044
  0
LINE
  5
331
100
AcDbEntity
  8
0
100
AcDbLine
 62
7
  6
CONTINUOUS
 10
-17.8138341982
 20
139.2908429044
 11
-17.8138341982
 21
135.0908429044
  0
LINE
  5
332
100
AcDbEntity
  8
0
100
AcDbLine
 62
7
  6
CONTINUOUS
 10
95.5469015541
 20
130.2908429044
 11
-73.3745699505
 21
130.2908429044
  0
LINE
  5
333
100
AcDbEntity
  8
0
100
AcDbLine
 62
7
  6
CONTINUOUS
 10
-10.0138341982
 20
139.2908429044
 11
-10.0138341982
 21
135.0908429044
  0
LINE
  5
334
100
AcDbEntity
  8
0
100
AcDbLine
 62
7
  6
CONTINUOUS
 10
-7.8138341982
 20
139.2908429044
 11
-7.8138341982
 21
135.0908429044
  0
LINE
  5
335
100
AcDbEntity
  8
0
100
AcDbLine
 62
7
  6
CONTINUOUS
 10
82.1861658018
 20
135.0908429044
 11
79.9861658018
 21
135.0908429044
  0
LINE
  5
336
100
AcDbEntity
  8
0
100
AcDbLine
 62
7
  6
CONTINUOUS
 10
72.1861658018
 20
135.0908429044
 11
69.9861658018
 21
135.0908429044
  0
LINE
  5
337
100
AcDbEntity
  8
0
100
AcDbLine
 62
7
  6
CONTINUOUS
 10
62.1861658018
 20
135.0908429044
 11
59.9861658018
 21
135.0908429044
  0
LINE
  5
338
100
AcDbEntity
  8
0
100
AcDbLine
 62
7
  6
CONTINUOUS
 10
52.1861658018
 20
135.0908429044
 11
49.9861658018
 21
135.0908429044
  0
LINE
  5
339
100
AcDbEntity
  8
0
100
AcDbLine
 62
7
  6
CONTINUOUS
 10
42.1861658018
 20
135.0908429044
 11
39.9861658018
 21
135.0908429044
  0
LINE
  5
33A
100
AcDbEntity
  8
0
100
AcDbLine
 62
7
  6
CONTINUOUS
 10
32.1861658018
 20
135.0908429044
 11
29.9861658018
 21
135.0908429044
  0
LINE
  5
33B
100
AcDbEntity
  8
0
100
AcDbLine
 62
7
  6
CONTINUOUS
 10
22.1861658018
 20
135.0908429044
 11
19.9861658018
 21
135.0908429044
  0
LINE
  5
33C
100
AcDbEntity
  8
0
100
AcDbLine
 62
7
  6
CONTINUOUS
 10
12.1861658018
 20
135.0908429044
 11
9.9861658018
 21
135.0908429044
  0
LINE
  5
33D
100
AcDbEntity
  8
0
100
AcDbLine
 62
7
  6
CONTINUOUS
 10
2.1861658018
 20
135.0908429044
 11
-0.0138341982
 21
135.0908429044
  0
LINE
  5
33E
100
AcDbEntity
  8
0
100
AcDbLine
 62
7
  6
CONTINUOUS
 10
-7.8138341982
 20
135.0908429044
 11
-10.0138341982
 21
135.0908429044
  0
LINE
  5
33F
100
AcDbEntity
  8
0
100
AcDbLine
 62
7
  6
CONTINUOUS
 10
-17.8138341982
 20
135.0908429044
 11
-20.0138341982
 21
135.0908429044
  0
LINE
  5
340
100
AcDbEntity
  8
0
100
AcDbLine
 62
7
  6
CONTINUOUS
 10
-27.8138341982
 20
135.0908429044
 11
-30.0138341982
 21
135.0908429044
  0
LINE
  5
341
100
AcDbEntity
  8
0
100
AcDbLine
 62
7
  6
CONTINUOUS
 10
-37.8138341982
 20
135.0908429044
 11
-40.0138341982
 21
135.0908429044
  0
LINE
  5
342
100
AcDbEntity
  8
0
100
AcDbLine
 62
7
  6
CONTINUOUS
 10
-47.8138341982
 20
135.0908429044
 11
-50.0138341982
 21
135.0908429044
  0
LINE
  5
343
100
AcDbEntity
  8
0
100
AcDbLine
 62
7
  6
CONTINUOUS
 10
-57.8138341982
 20
135.0908429044
 11
-60.0138341982
 21
135.0908429044
  0
LINE
  5
344
100
AcDbEntity
  8
0
100
AcDbLine
 62
7
  6
CONTINUOUS
 10
82.1861658018
 20
139.2908429044
 11
79.9861658018
 21
139.2908429044
  0
LINE
  5
345
100
AcDbEntity
  8
0
100
AcDbLine
 62
7
  6
CONTINUOUS
 10
72.1861658018
 20
139.2908429044
 11
69.9861658018
 21
139.2908429044
  0
LINE
  5
346
100
AcDbEntity
  8
0
100
AcDbLine
 62
7
  6
CONTINUOUS
 10
62.1861658018
 20
139.2908429044
 11
59.9861658018
 21
139.2908429044
  0
LINE
  5
347
100
AcDbEntity
  8
0
100
AcDbLine
 62
7
  6
CONTINUOUS
 10
52.1861658018
 20
139.2908429044
 11
49.9861658018
 21
139.2908429044
  0
LINE
  5
348
100
AcDbEntity
  8
0
100
AcDbLine
 62
7
  6
CONTINUOUS
 10
42.1861658018
 20
139.2908429044
 11
39.9861658018
 21
139.2908429044
  0
LINE
  5
349
100
AcDbEntity
  8
0
100
AcDbLine
 62
7
  6
CONTINUOUS
 10
32.1861658018
 20
139.2908429044
 11
29.9861658018
 21
139.2908429044
  0
LINE
  5
34A
100
AcDbEntity
  8
0
100
AcDbLine
 62
7
  6
CONTINUOUS
 10
22.1861658018
 20
139.2908429044
 11
19.9861658018
 21
139.2908429044
  0
LINE
  5
34B
100
AcDbEntity
  8
0
100
AcDbLine
 62
7
  6
CONTINUOUS
 10
12.1861658018
 20
139.2908429044
 11
9.9861658018
 21
139.2908429044
  0
LINE
  5
34C
100
AcDbEntity
  8
0
100
AcDbLine
 62
7
  6
CONTINUOUS
 10
2.1861658018
 20
139.2908429044
 11
-0.0138341982
 21
139.2908429044
  0
LINE
  5
34D
100
AcDbEntity
  8
0
100
AcDbLine
 62
7
  6
CONTINUOUS
 10
-7.8138341982
 20
139.2908429044
 11
-10.0138341982
 21
139.2908429044
  0
LINE
  5
34E
100
AcDbEntity
  8
0
100
AcDbLine
 62
7
  6
CONTINUOUS
 10
-17.8138341982
 20
139.2908429044
 11
-20.0138341982
 21
139.2908429044
  0
LINE
  5
34F
100
AcDbEntity
  8
0
100
AcDbLine
 62
7
  6
CONTINUOUS
 10
-27.8138341982
 20
139.2908429044
 11
-30.0138341982
 21
139.2908429044
  0
LINE
  5
350
100
AcDbEntity
  8
0
100
AcDbLine
 62
7
  6
CONTINUOUS
 10
-37.8138341982
 20
139.2908429044
 11
-40.0138341982
 21
139.2908429044
  0
LINE
  5
351
100
AcDbEntity
  8
0
100
AcDbLine
 62
7
  6
CONTINUOUS
 10
-47.8138341982
 20
139.2908429044
 11
-50.0138341982
 21
139.2908429044
  0
LINE
  5
352
100
AcDbEntity
  8
0
100
AcDbLine
 62
7
  6
CONTINUOUS
 10
-57.8138341982
 20
139.2908429044
 11
-60.0138341982
 21
139.2908429044
  0
LINE
  5
353
100
AcDbEntity
  8
0
100
AcDbLine
 62
7
  6
CONTINUOUS
 10
-0.0138341982
 20
139.2908429044
 11
-0.0138341982
 21
135.0908429044
  0
LINE
  5
354
100
AcDbEntity
  8
0
100
AcDbLine
 62
7
  6
CONTINUOUS
 10
2.1861658018
 20
139.2908429044
 11
2.1861658018
 21
135.0908429044
  0
LINE
  5
355
100
AcDbEntity
  8
0
100
AcDbLine
 62
7
  6
CONTINUOUS
 10
9.9861658018
 20
139.2908429044
 11
9.9861658018
 21
135.0908429044
  0
LINE
  5
356
100
AcDbEntity
  8
0
100
AcDbLine
 62
7
  6
CONTINUOUS
 10
-11.9138341982
 20
154.2908429044
 11
-25.9138341982
 21
154.2908429044
  0
LINE
  5
357
100
AcDbEntity
  8
0
100
AcDbLine
 62
7
  6
CONTINUOUS
 10
12.1861658018
 20
139.2908429044
 11
12.1861658018
 21
135.0908429044
  0
LINE
  5
358
100
AcDbEntity
  8
0
100
AcDbLine
 62
7
  6
CONTINUOUS
 10
-25.9138341982
 20
161.2908429044
 11
-11.9138341982
 21
161.2908429044
  0
LINE
  5
359
100
AcDbEntity
  8
0
100
AcDbLine
 62
7
  6
CONTINUOUS
 10
19.9861658018
 20
139.2908429044
 11
19.9861658018
 21
135.0908429044
  0
LINE
  5
35A
100
AcDbEntity
  8
0
100
AcDbLine
 62
7
  6
CONTINUOUS
 10
22.1861658018
 20
139.2908429044
 11
22.1861658018
 21
135.0908429044
  0
LINE
  5
35B
100
AcDbEntity
  8
0
100
AcDbLine
 62
7
  6
CONTINUOUS
 10
29.9861658018
 20
139.2908429044
 11
29.9861658018
 21
135.0908429044
  0
LINE
  5
35C
100
AcDbEntity
  8
0
100
AcDbLine
 62
7
  6
CONTINUOUS
 10
32.1861658018
 20
139.2908429044
 11
32.1861658018
 21
135.0908429044
  0
LINE
  5
35D
100
AcDbEntity
  8
0
100
AcDbLine
 62
7
  6
CONTINUOUS
 10
39.9861658018
 20
139.2908429044
 11
39.9861658018
 21
135.0908429044
  0
LINE
  5
35E
100
AcDbEntity
  8
0
100
AcDbLine
 62
7
  6
CONTINUOUS
 10
-73.3745699505
 20
185.2908429044
 11
95.5469015541
 21
185.2908429044
  0
LINE
  5
35F
100
AcDbEntity
  8
0
100
AcDbLine
 62
7
  6
CONTINUOUS
 10
42.1861658018
 20
139.2908429044
 11
42.1861658018
 21
135.0908429044
  0
LINE
  5
360
100
AcDbEntity
  8
0
100
AcDbLine
 62
7
  6
CONTINUOUS
 10
49.9861658018
 20
139.2908429044
 11
49.9861658018
 21
135.0908429044
  0
LINE
  5
361
100
AcDbEntity
  8
0
100
AcDbLine
 62
7
  6
CONTINUOUS
 10
52.1861658018
 20
139.2908429044
 11
52.1861658018
 21
135.0908429044
  0
LINE
  5
362
100
AcDbEntity
  8
0
100
AcDbLine
 62
7
  6
CONTINUOUS
 10
59.9861658018
 20
139.2908429044
 11
59.9861658018
 21
135.0908429044
  0
LINE
  5
363
100
AcDbEntity
  8
0
100
AcDbLine
 62
7
  6
CONTINUOUS
 10
62.1861658018
 20
139.2908429044
 11
62.1861658018
 21
135.0908429044
  0
LINE
  5
364
100
AcDbEntity
  8
0
100
AcDbLine
 62
7
  6
CONTINUOUS
 10
69.9861658018
 20
139.2908429044
 11
69.9861658018
 21
135.0908429044
  0
LINE
  5
365
100
AcDbEntity
  8
0
100
AcDbLine
 62
7
  6
CONTINUOUS
 10
72.1861658018
 20
139.2908429044
 11
72.1861658018
 21
135.0908429044
  0
LINE
  5
366
100
AcDbEntity
  8
0
100
AcDbLine
 62
7
  6
CONTINUOUS
 10
79.9861658018
 20
139.2908429044
 11
79.9861658018
 21
135.0908429044
  0
LINE
  5
367
100
AcDbEntity
  8
0
100
AcDbLine
 62
7
  6
CONTINUOUS
 10
82.1861658018
 20
139.2908429044
 11
82.1861658018
 21
135.0908429044
  0
LINE
  5
368
100
AcDbEntity
  8
0
100
AcDbLine
 62
7
  6
CONTINUOUS
 10
95.5469015541
 20
185.2908429044
 11
95.5469015541
 21
130.2908429044
  0
LINE
  5
369
100
AcDbEntity
  8
0
100
AcDbLine
 62
7
  6
CONTINUOUS
 10
106.5037741486
 20
129.3201058761
 11
106.5037741486
 21
184.3201058761
  0
LINE
  5
36A
100
AcDbEntity
  8
0
100
AcDbLine
 62
7
  6
CONTINUOUS
 10
119.4037741486
 20
175.3201058761
 11
119.4037741486
 21
179.5201058761
  0
LINE
  5
36B
100
AcDbEntity
  8
0
100
AcDbLine
 62
7
  6
CONTINUOUS
 10
121.6037741486
 20
175.3201058761
 11
121.6037741486
 21
179.5201058761
  0
LINE
  5
36C
100
AcDbEntity
  8
0
100
AcDbLine
 62
7
  6
CONTINUOUS
 10
129.4037741486
 20
175.3201058761
 11
129.4037741486
 21
179.5201058761
  0
LINE
  5
36D
100
AcDbEntity
  8
0
100
AcDbLine
 62
7
  6
CONTINUOUS
 10
131.6037741486
 20
175.3201058761
 11
131.6037741486
 21
179.5201058761
  0
LINE
  5
36E
100
AcDbEntity
  8
0
100
AcDbLine
 62
7
  6
CONTINUOUS
 10
134.5037741486
 20
160.8201058761
 11
134.5037741486
 21
152.8201058761
  0
LINE
  5
36F
100
AcDbEntity
  8
0
100
AcDbLine
 62
7
  6
CONTINUOUS
 10
139.4037741486
 20
175.3201058761
 11
139.4037741486
 21
179.5201058761
  0
LINE
  5
370
100
AcDbEntity
  8
0
100
AcDbLine
 62
7
  6
CONTINUOUS
 10
141.6037741486
 20
175.3201058761
 11
141.6037741486
 21
179.5201058761
  0
LINE
  5
371
100
AcDbEntity
  8
0
100
AcDbLine
 62
7
  6
CONTINUOUS
 10
146.5037741486
 20
152.8201058761
 11
146.5037741486
 21
160.8201058761
  0
LINE
  5
372
100
AcDbEntity
  8
0
100
AcDbLine
 62
7
  6
CONTINUOUS
 10
149.4037741486
 20
175.3201058761
 11
149.4037741486
 21
179.5201058761
  0
LINE
  5
373
100
AcDbEntity
  8
0
100
AcDbLine
 62
7
  6
CONTINUOUS
 10
151.6037741486
 20
175.3201058761
 11
151.6037741486
 21
179.5201058761
  0
LINE
  5
374
100
AcDbEntity
  8
0
100
AcDbLine
 62
7
  6
CONTINUOUS
 10
159.4037741486
 20
175.3201058761
 11
159.4037741486
 21
179.5201058761
  0
LINE
  5
375
100
AcDbEntity
  8
0
100
AcDbLine
 62
7
  6
CONTINUOUS
 10
161.6037741486
 20
175.3201058761
 11
161.6037741486
 21
179.5201058761
  0
LINE
  5
376
100
AcDbEntity
  8
0
100
AcDbLine
 62
7
  6
CONTINUOUS
 10
274.5037741486
 20
129.3201058761
 11
106.5037741486
 21
129.3201058761
  0
LINE
  5
377
100
AcDbEntity
  8
0
100
AcDbLine
 62
7
  6
CONTINUOUS
 10
169.4037741486
 20
175.3201058761
 11
169.4037741486
 21
179.5201058761
  0
LINE
  5
378
100
AcDbEntity
  8
0
100
AcDbLine
 62
7
  6
CONTINUOUS
 10
171.6037741486
 20
175.3201058761
 11
171.6037741486
 21
179.5201058761
  0
LINE
  5
379
100
AcDbEntity
  8
0
100
AcDbLine
 62
7
  6
CONTINUOUS
 10
179.4037741486
 20
175.3201058761
 11
179.4037741486
 21
179.5201058761
  0
LINE
  5
37A
100
AcDbEntity
  8
0
100
AcDbLine
 62
7
  6
CONTINUOUS
 10
181.6037741486
 20
175.3201058761
 11
181.6037741486
 21
179.5201058761
  0
LINE
  5
37B
100
AcDbEntity
  8
0
100
AcDbLine
 62
7
  6
CONTINUOUS
 10
189.4037741486
 20
175.3201058761
 11
189.4037741486
 21
179.5201058761
  0
LINE
  5
37C
100
AcDbEntity
  8
0
100
AcDbLine
 62
7
  6
CONTINUOUS
 10
134.5037741486
 20
152.8201058761
 11
146.5037741486
 21
152.8201058761
  0
LINE
  5
37D
100
AcDbEntity
  8
0
100
AcDbLine
 62
7
  6
CONTINUOUS
 10
213.5037741486
 20
153.3201058761
 11
227.5037741486
 21
153.3201058761
  0
LINE
  5
37E
100
AcDbEntity
  8
0
100
AcDbLine
 62
7
  6
CONTINUOUS
 10
191.6037741486
 20
175.3201058761
 11
191.6037741486
 21
179.5201058761
  0
LINE
  5
37F
100
AcDbEntity
  8
0
100
AcDbLine
 62
7
  6
CONTINUOUS
 10
227.5037741486
 20
160.3201058761
 11
213.5037741486
 21
160.3201058761
  0
LINE
  5
380
100
AcDbEntity
  8
0
100
AcDbLine
 62
7
  6
CONTINUOUS
 10
146.5037741486
 20
160.8201058761
 11
134.5037741486
 21
160.8201058761
  0
LINE
  5
381
100
AcDbEntity
  8
0
100
AcDbLine
 62
7
  6
CONTINUOUS
 10
199.4037741486
 20
175.3201058761
 11
199.4037741486
 21
179.5201058761
  0
LINE
  5
382
100
AcDbEntity
  8
0
100
AcDbLine
 62
7
  6
CONTINUOUS
 10
201.6037741486
 20
175.3201058761
 11
201.6037741486
 21
179.5201058761
  0
LINE
  5
383
100
AcDbEntity
  8
0
100
AcDbLine
 62
7
  6
CONTINUOUS
 10
209.4037741486
 20
175.3201058761
 11
209.4037741486
 21
179.5201058761
  0
LINE
  5
384
100
AcDbEntity
  8
0
100
AcDbLine
 62
7
  6
CONTINUOUS
 10
211.6037741486
 20
175.3201058761
 11
211.6037741486
 21
179.5201058761
  0
LINE
  5
385
100
AcDbEntity
  8
0
100
AcDbLine
 62
7
  6
CONTINUOUS
 10
119.4037741486
 20
175.3201058761
 11
121.6037741486
 21
175.3201058761
  0
LINE
  5
386
100
AcDbEntity
  8
0
100
AcDbLine
 62
7
  6
CONTINUOUS
 10
129.4037741486
 20
175.3201058761
 11
131.6037741486
 21
175.3201058761
  0
LINE
  5
387
100
AcDbEntity
  8
0
100
AcDbLine
 62
7
  6
CONTINUOUS
 10
139.4037741486
 20
175.3201058761
 11
141.6037741486
 21
175.3201058761
  0
LINE
  5
388
100
AcDbEntity
  8
0
100
AcDbLine
 62
7
  6
CONTINUOUS
 10
149.4037741486
 20
175.3201058761
 11
151.6037741486
 21
175.3201058761
  0
LINE
  5
389
100
AcDbEntity
  8
0
100
AcDbLine
 62
7
  6
CONTINUOUS
 10
159.4037741486
 20
175.3201058761
 11
161.6037741486
 21
175.3201058761
  0
LINE
  5
38A
100
AcDbEntity
  8
0
100
AcDbLine
 62
7
  6
CONTINUOUS
 10
169.4037741486
 20
175.3201058761
 11
171.6037741486
 21
175.3201058761
  0
LINE
  5
38B
100
AcDbEntity
  8
0
100
AcDbLine
 62
7
  6
CONTINUOUS
 10
179.4037741486
 20
175.3201058761
 11
181.6037741486
 21
175.3201058761
  0
LINE
  5
38C
100
AcDbEntity
  8
0
100
AcDbLine
 62
7
  6
CONTINUOUS
 10
189.4037741486
 20
175.3201058761
 11
191.6037741486
 21
175.3201058761
  0
LINE
  5
38D
100
AcDbEntity
  8
0
100
AcDbLine
 62
7
  6
CONTINUOUS
 10
199.4037741486
 20
175.3201058761
 11
201.6037741486
 21
175.3201058761
  0
LINE
  5
38E
100
AcDbEntity
  8
0
100
AcDbLine
 62
7
  6
CONTINUOUS
 10
209.4037741486
 20
175.3201058761
 11
211.6037741486
 21
175.3201058761
  0
LINE
  5
38F
100
AcDbEntity
  8
0
100
AcDbLine
 62
7
  6
CONTINUOUS
 10
219.4037741486
 20
175.3201058761
 11
221.6037741486
 21
175.3201058761
  0
LINE
  5
390
100
AcDbEntity
  8
0
100
AcDbLine
 62
7
  6
CONTINUOUS
 10
229.4037741486
 20
175.3201058761
 11
231.6037741486
 21
175.3201058761
  0
LINE
  5
391
100
AcDbEntity
  8
0
100
AcDbLine
 62
7
  6
CONTINUOUS
 10
239.4037741486
 20
175.3201058761
 11
241.6037741486
 21
175.3201058761
  0
LINE
  5
392
100
AcDbEntity
  8
0
100
AcDbLine
 62
7
  6
CONTINUOUS
 10
249.4037741486
 20
175.3201058761
 11
251.6037741486
 21
175.3201058761
  0
LINE
  5
393
100
AcDbEntity
  8
0
100
AcDbLine
 62
7
  6
CONTINUOUS
 10
259.4037741486
 20
175.3201058761
 11
261.6037741486
 21
175.3201058761
  0
LINE
  5
394
100
AcDbEntity
  8
0
100
AcDbLine
 62
7
  6
CONTINUOUS
 10
119.4037741486
 20
179.5201058761
 11
121.6037741486
 21
179.5201058761
  0
LINE
  5
395
100
AcDbEntity
  8
0
100
AcDbLine
 62
7
  6
CONTINUOUS
 10
129.4037741486
 20
179.5201058761
 11
131.6037741486
 21
179.5201058761
  0
LINE
  5
396
100
AcDbEntity
  8
0
100
AcDbLine
 62
7
  6
CONTINUOUS
 10
139.4037741486
 20
179.5201058761
 11
141.6037741486
 21
179.5201058761
  0
LINE
  5
397
100
AcDbEntity
  8
0
100
AcDbLine
 62
7
  6
CONTINUOUS
 10
149.4037741486
 20
179.5201058761
 11
151.6037741486
 21
179.5201058761
  0
LINE
  5
398
100
AcDbEntity
  8
0
100
AcDbLine
 62
7
  6
CONTINUOUS
 10
159.4037741486
 20
179.5201058761
 11
161.6037741486
 21
179.5201058761
  0
LINE
  5
399
100
AcDbEntity
  8
0
100
AcDbLine
 62
7
  6
CONTINUOUS
 10
169.4037741486
 20
179.5201058761
 11
171.6037741486
 21
179.5201058761
  0
LINE
  5
39A
100
AcDbEntity
  8
0
100
AcDbLine
 62
7
  6
CONTINUOUS
 10
179.4037741486
 20
179.5201058761
 11
181.6037741486
 21
179.5201058761
  0
LINE
  5
39B
100
AcDbEntity
  8
0
100
AcDbLine
 62
7
  6
CONTINUOUS
 10
189.4037741486
 20
179.5201058761
 11
191.6037741486
 21
179.5201058761
  0
LINE
  5
39C
100
AcDbEntity
  8
0
100
AcDbLine
 62
7
  6
CONTINUOUS
 10
199.4037741486
 20
179.5201058761
 11
201.6037741486
 21
179.5201058761
  0
LINE
  5
39D
100
AcDbEntity
  8
0
100
AcDbLine
 62
7
  6
CONTINUOUS
 10
209.4037741486
 20
179.5201058761
 11
211.6037741486
 21
179.5201058761
  0
LINE
  5
39E
100
AcDbEntity
  8
0
100
AcDbLine
 62
7
  6
CONTINUOUS
 10
219.4037741486
 20
179.5201058761
 11
221.6037741486
 21
179.5201058761
  0
LINE
  5
39F
100
AcDbEntity
  8
0
100
AcDbLine
 62
7
  6
CONTINUOUS
 10
229.4037741486
 20
179.5201058761
 11
231.6037741486
 21
179.5201058761
  0
LINE
  5
3A0
100
AcDbEntity
  8
0
100
AcDbLine
 62
7
  6
CONTINUOUS
 10
239.4037741486
 20
179.5201058761
 11
241.6037741486
 21
179.5201058761
  0
LINE
  5
3A1
100
AcDbEntity
  8
0
100
AcDbLine
 62
7
  6
CONTINUOUS
 10
249.4037741486
 20
179.5201058761
 11
251.6037741486
 21
179.5201058761
  0
LINE
  5
3A2
100
AcDbEntity
  8
0
100
AcDbLine
 62
7
  6
CONTINUOUS
 10
259.4037741486
 20
179.5201058761
 11
261.6037741486
 21
179.5201058761
  0
LINE
  5
3A3
100
AcDbEntity
  8
0
100
AcDbLine
 62
7
  6
CONTINUOUS
 10
219.4037741486
 20
175.3201058761
 11
219.4037741486
 21
179.5201058761
  0
LINE
  5
3A4
100
AcDbEntity
  8
0
100
AcDbLine
 62
7
  6
CONTINUOUS
 10
106.5037741486
 20
184.3201058761
 11
274.5037741486
 21
184.3201058761
  0
LINE
  5
3A5
100
AcDbEntity
  8
0
100
AcDbLine
 62
7
  6
CONTINUOUS
 10
221.6037741486
 20
175.3201058761
 11
221.6037741486
 21
179.5201058761
  0
LINE
  5
3A6
100
AcDbEntity
  8
0
100
AcDbLine
 62
7
  6
CONTINUOUS
 10
229.4037741486
 20
175.3201058761
 11
229.4037741486
 21
179.5201058761
  0
LINE
  5
3A7
100
AcDbEntity
  8
0
100
AcDbLine
 62
7
  6
CONTINUOUS
 10
231.6037741486
 20
175.3201058761
 11
231.6037741486
 21
179.5201058761
  0
LINE
  5
3A8
100
AcDbEntity
  8
0
100
AcDbLine
 62
7
  6
CONTINUOUS
 10
239.4037741486
 20
175.3201058761
 11
239.4037741486
 21
179.5201058761
  0
LINE
  5
3A9
100
AcDbEntity
  8
0
100
AcDbLine
 62
7
  6
CONTINUOUS
 10
241.6037741486
 20
175.3201058761
 11
241.6037741486
 21
179.5201058761
  0
LINE
  5
3AA
100
AcDbEntity
  8
0
100
AcDbLine
 62
7
  6
CONTINUOUS
 10
249.4037741486
 20
175.3201058761
 11
249.4037741486
 21
179.5201058761
  0
LINE
  5
3AB
100
AcDbEntity
  8
0
100
AcDbLine
 62
7
  6
CONTINUOUS
 10
251.6037741486
 20
175.3201058761
 11
251.6037741486
 21
179.5201058761
  0
LINE
  5
3AC
100
AcDbEntity
  8
0
100
AcDbLine
 62
7
  6
CONTINUOUS
 10
259.4037741486
 20
175.3201058761
 11
259.4037741486
 21
179.5201058761
  0
LINE
  5
3AD
100
AcDbEntity
  8
0
100
AcDbLine
 62
7
  6
CONTINUOUS
 10
261.6037741486
 20
175.3201058761
 11
261.6037741486
 21
179.5201058761
  0
LINE
  5
3AE
100
AcDbEntity
  8
0
100
AcDbLine
 62
7
  6
CONTINUOUS
 10
274.5037741486
 20
184.3201058761
 11
274.5037741486
 21
129.3201058761
  0
LINE
  5
3AF
100
AcDbEntity
  8
0
100
AcDbLine
 62
7
  6
CONTINUOUS
 10
-73.3745699505
 20
114.3589326745
 11
-73.3745699505
 21
-41.1410673255
  0
LINE
  5
3B0
100
AcDbEntity
  8
0
100
AcDbLine
 62
7
  6
CONTINUOUS
 10
-65.3745699505
 20
122.3589326745
 11
-73.3745699505
 21
114.3589326745
  0
LINE
  5
3B1
100
AcDbEntity
  8
0
100
AcDbLine
 62
7
  6
CONTINUOUS
 10
-73.3745699505
 20
-41.1410673255
 11
-65.3745699505
 21
-49.1410673255
  0
LINE
  5
3B2
100
AcDbEntity
  8
0
100
AcDbLine
 62
7
  6
CONTINUOUS
 10
-65.3745699505
 20
-49.1410673255
 11
250.1254300495
 21
-49.1410673255
  0
LINE
  5
3B3
100
AcDbEntity
  8
0
100
AcDbLine
 62
7
  6
CONTINUOUS
 10
250.1254300495
 20
122.3589326745
 11
-65.3745699505
 21
122.3589326745
  0
LINE
  5
3B4
100
AcDbEntity
  8
0
100
AcDbLine
 62
7
  6
CONTINUOUS
 10
258.1254300495
 20
-41.1410673255
 11
258.1254300495
 21
114.3589326745
  0
LINE
  5
3B5
100
AcDbEntity
  8
0
100
AcDbLine
 62
7
  6
CONTINUOUS
 10
250.1254300495
 20
-49.1410673255
 11
258.1254300495
 21
-41.1410673255
  0
LINE
  5
3B6
100
AcDbEntity
  8
0
100
AcDbLine
 62
7
  6
CONTINUOUS
 10
258.1254300495
 20
114.3589326745
 11
250.1254300495
 21
122.3589326745
  0
LINE
  5
3B7
100
AcDbEntity
  8
0
100
AcDbLine
 62
7
  6
CONTINUOUS
 10
-73.3745699505
 20
-187.5145637878
 11
-73.3745699505
 21
-213.7145637878
  0
LINE
  5
3B8
100
AcDbEntity
  8
0
100
AcDbLine
 62
7
  6
CONTINUOUS
 10
-68.3745699505
 20
-218.7145637878
 11
-23.3745699505
 21
-218.7145637878
  0
LINE
  5
3B9
100
AcDbEntity
  8
0
100
AcDbLine
 62
7
  6
CONTINUOUS
 10
-23.3745699505
 20
-182.5145637878
 11
-68.3745699505
 21
-182.5145637878
  0
LINE
  5
3BA
100
AcDbEntity
  8
0
100
AcDbLine
 62
7
  6
CONTINUOUS
 10
-18.3745699505
 20
-213.7145637878
 11
-18.3745699505
 21
-187.5145637878
  0
ARC
  5
3BB
100
AcDbEntity
  8
0
100
AcDbCircle
 62
7
  6
CONTINUOUS
 10
-66.3745699505
 20
224.8159646018
 40
7.0
100
AcDbArc
 50
180.0
 51
270.0
  0
ARC
  5
3BC
100
AcDbEntity
  8
0
100
AcDbCircle
 62
7
  6
CONTINUOUS
 10
277.6254300495
 20
224.8159646018
 40
7.0
100
AcDbArc
 50
270.0
 51
360.0
  0
ARC
  5
3BD
100
AcDbEntity
  8
0
100
AcDbCircle
 62
7
  6
CONTINUOUS
 10
277.6254300495
 20
408.8159646018
 40
7.0
100
AcDbArc
 50
0.0
 51
90.0
  0
ARC
  5
3BE
100
AcDbEntity
  8
0
100
AcDbCircle
 62
7
  6
CONTINUOUS
 10
-66.3745699505
 20
408.8159646018
 40
7.0
100
AcDbArc
 50
90.0
 51
180.0
  0
CIRCLE
  5
3BF
100
AcDbEntity
  8
0
100
AcDbCircle
 62
7
  6
CONTINUOUS
 10
-65.3745699505
 20
407.8159646018
 40
1.7
  0
CIRCLE
  5
3C0
100
AcDbEntity
  8
0
100
AcDbCircle
 62
7
  6
CONTINUOUS
 10
-65.3745699505
 20
225.8159646018
 40
1.7
  0
CIRCLE
  5
3C1
100
AcDbEntity
  8
0
100
AcDbCircle
 62
7
  6
CONTINUOUS
 10
276.6254300495
 20
225.3552288495
 40
1.7
  0
CIRCLE
  5
3C2
100
AcDbEntity
  8
0
100
AcDbCircle
 62
7
  6
CONTINUOUS
 10
276.6254300495
 20
408.276700354
 40
1.7
  0
ARC
  5
3C3
100
AcDbEntity
  8
0
100
AcDbCircle
 62
7
  6
CONTINUOUS
 10
178.5196664882
 20
-188.0496095484
 40
7.0
100
AcDbArc
 50
45.0
 51
90.0
  0
ARC
  5
3C4
100
AcDbEntity
  8
0
100
AcDbCircle
 62
7
  6
CONTINUOUS
 10
-5.4803335118
 20
-188.0496095484
 40
7.0
100
AcDbArc
 50
90.0
 51
135.0
  0
CIRCLE
  5
3C5
100
AcDbEntity
  8
0
100
AcDbCircle
 62
7
  6
CONTINUOUS
 10
10.5196664882
 20
-190.0496095484
 40
1.7877752396
  0
CIRCLE
  5
3C6
100
AcDbEntity
  8
0
100
AcDbCircle
 62
7
  6
CONTINUOUS
 10
162.5196664882
 20
-190.0496095484
 40
1.7877752396
  0
ARC
  5
3C7
100
AcDbEntity
  8
0
100
AcDbCircle
 62
7
  6
CONTINUOUS
 10
275.2401376105
 20
197.6631941073
 40
7.0
100
AcDbArc
 50
270.0
 51
315.0
  0
ARC
  5
3C8
100
AcDbEntity
  8
0
100
AcDbCircle
 62
7
  6
CONTINUOUS
 10
-68.7598623895
 20
197.6631941073
 40
7.0
100
AcDbArc
 50
225.0
 51
270.0
  0
CIRCLE
  5
3C9
100
AcDbEntity
  8
0
100
AcDbCircle
 62
7
  6
CONTINUOUS
 10
259.2401376105
 20
199.6631941073
 40
1.7877752396
  0
CIRCLE
  5
3CA
100
AcDbEntity
  8
0
100
AcDbCircle
 62
7
  6
CONTINUOUS
 10
-52.7598623895
 20
199.202458355
 40
1.7877752396
  0
CIRCLE
  5
3CB
100
AcDbEntity
  8
0
100
AcDbCircle
 62
7
  6
CONTINUOUS
 10
248.6254300495
 20
-84.383566506
 40
1.7
  0
CIRCLE
  5
3CC
100
AcDbEntity
  8
0
100
AcDbCircle
 62
7
  6
CONTINUOUS
 10
-67.3745699505
 20
-145.9374002324
 40
1.7
  0
CIRCLE
  5
3CD
100
AcDbEntity
  8
0
100
AcDbCircle
 62
7
  6
CONTINUOUS
 10
248.6254300495
 20
-145.9374002324
 40
1.7
  0
CIRCLE
  5
3CE
100
AcDbEntity
  8
0
100
AcDbCircle
 62
7
  6
CONTINUOUS
 10
87.1254300495
 20
-141.0874002324
 40
1.7
  0
CIRCLE
  5
3CF
100
AcDbEntity
  8
0
100
AcDbCircle
 62
7
  6
CONTINUOUS
 10
87.1254300495
 20
-166.0874002324
 40
1.7
  0
ARC
  5
3D0
100
AcDbEntity
  8
0
100
AcDbCircle
 62
7
  6
CONTINUOUS
 10
-11.9138341982
 20
157.7908429044
 40
3.5
100
AcDbArc
 50
270.0
 51
90.0
  0
ARC
  5
3D1
100
AcDbEntity
  8
0
100
AcDbCircle
 62
7
  6
CONTINUOUS
 10
-25.9138341982
 20
157.7908429044
 40
3.5
100
AcDbArc
 50
90.0
 51
270.0
  0
CIRCLE
  5
3D2
100
AcDbEntity
  8
0
100
AcDbCircle
 62
7
  6
CONTINUOUS
 10
-67.3745699505
 20
157.7908429044
 40
1.7
  0
CIRCLE
  5
3D3
100
AcDbEntity
  8
0
100
AcDbCircle
 62
7
  6
CONTINUOUS
 10
4.2536559802
 20
157.7908429044
 40
1.7
  0
CIRCLE
  5
3D4
100
AcDbEntity
  8
0
100
AcDbCircle
 62
7
  6
CONTINUOUS
 10
-42.0813243766
 20
157.7908429044
 40
1.7
  0
CIRCLE
  5
3D5
100
AcDbEntity
  8
0
100
AcDbCircle
 62
7
  6
CONTINUOUS
 10
-38.3745699505
 20
172.7908429044
 40
5.5
  0
CIRCLE
  5
3D6
100
AcDbEntity
  8
0
100
AcDbCircle
 62
7
  6
CONTINUOUS
 10
22.6861658018
 20
151.2908429044
 40
1.7
  0
CIRCLE
  5
3D7
100
AcDbEntity
  8
0
100
AcDbCircle
 62
7
  6
CONTINUOUS
 10
67.6861658018
 20
151.2908429044
 40
1.7
  0
CIRCLE
  5
3D8
100
AcDbEntity
  8
0
100
AcDbCircle
 62
7
  6
CONTINUOUS
 10
89.5469015541
 20
157.7908429044
 40
1.7
  0
CIRCLE
  5
3D9
100
AcDbEntity
  8
0
100
AcDbCircle
 62
7
  6
CONTINUOUS
 10
22.6861658018
 20
176.2908429044
 40
1.7
  0
CIRCLE
  5
3DA
100
AcDbEntity
  8
0
100
AcDbCircle
 62
7
  6
CONTINUOUS
 10
46.0861658018
 20
164.7908429044
 40
15.0
  0
CIRCLE
  5
3DB
100
AcDbEntity
  8
0
100
AcDbCircle
 62
7
  6
CONTINUOUS
 10
67.6861658018
 20
176.2908429044
 40
1.7
  0
ARC
  5
3DC
100
AcDbEntity
  8
0
100
AcDbCircle
 62
7
  6
CONTINUOUS
 10
213.5037741486
 20
156.8201058761
 40
3.5
100
AcDbArc
 50
90.0
 51
270.0
  0
ARC
  5
3DD
100
AcDbEntity
  8
0
100
AcDbCircle
 62
7
  6
CONTINUOUS
 10
227.5037741486
 20
156.8201058761
 40
3.5
100
AcDbArc
 50
270.0
 51
90.0
  0
CIRCLE
  5
3DE
100
AcDbEntity
  8
0
100
AcDbCircle
 62
7
  6
CONTINUOUS
 10
132.1162741486
 20
156.8201058761
 40
1.85
  0
CIRCLE
  5
3DF
100
AcDbEntity
  8
0
100
AcDbCircle
 62
7
  6
CONTINUOUS
 10
148.8912741486
 20
156.8201058761
 40
1.85
  0
CIRCLE
  5
3E0
100
AcDbEntity
  8
0
100
AcDbCircle
 62
7
  6
CONTINUOUS
 10
112.5037741486
 20
156.8201058761
 40
1.7
  0
CIRCLE
  5
3E1
100
AcDbEntity
  8
0
100
AcDbCircle
 62
7
  6
CONTINUOUS
 10
268.5037741486
 20
156.8201058761
 40
1.7
  0
CIRCLE
  5
3E2
100
AcDbEntity
  8
0
100
AcDbCircle
 62
7
  6
CONTINUOUS
 10
243.6712643271
 20
156.8201058761
 40
1.7
  0
CIRCLE
  5
3E3
100
AcDbEntity
  8
0
100
AcDbCircle
 62
7
  6
CONTINUOUS
 10
197.3362839702
 20
156.8201058761
 40
1.7
  0
ARC
  5
3E4
100
AcDbEntity
  8
0
100
AcDbCircle
 62
7
  6
CONTINUOUS
 10
-23.3745699505
 20
-213.7145637878
 40
5.0
100
AcDbArc
 50
270.0
 51
360.0
  0
ARC
  5
3E5
100
AcDbEntity
  8
0
100
AcDbCircle
 62
7
  6
CONTINUOUS
 10
-23.3745699505
 20
-187.5145637878
 40
5.0
100
AcDbArc
 50
0.0
 51
90.0
  0
ARC
  5
3E6
100
AcDbEntity
  8
0
100
AcDbCircle
 62
7
  6
CONTINUOUS
 10
-68.3745699505
 20
-187.5145637878
 40
5.0
100
AcDbArc
 50
90.0
 51
180.0
  0
ARC
  5
3E7
100
AcDbEntity
  8
0
100
AcDbCircle
 62
7
  6
CONTINUOUS
 10
-68.3745699505
 20
-213.7145637878
 40
5.0
100
AcDbArc
 50
180.0
 51
270.0
  0
CIRCLE
  5
3E8
100
AcDbEntity
  8
_ACHSEN
100
AcDbCircle
 62
7
  6
CONTINUOUS
 10
-23.3745699505
 20
-213.1145637878
 40
1.7
  0
CIRCLE
  5
3E9
100
AcDbEntity
  8
_ACHSEN
100
AcDbCircle
 62
7
  6
CONTINUOUS
 10
-68.3745699505
 20
-213.1145637878
 40
1.7
  0
CIRCLE
  5
3EA
100
AcDbEntity
  8
_ACHSEN
100
AcDbCircle
 62
7
  6
CONTINUOUS
 10
-68.3745699505
 20
-188.1145637878
 40
1.7
  0
CIRCLE
  5
3EB
100
AcDbEntity
  8
_ACHSEN
100
AcDbCircle
 62
7
  6
CONTINUOUS
 10
-23.3745699505
 20
-188.1145637878
 40
1.7
  0
CIRCLE
  5
3EC
100
AcDbEntity
  8
_ACHSEN
100
AcDbCircle
 62
7
  6
CONTINUOUS
 10
-32.7745699505
 20
-210.8645637878
 40
1.7
  0
CIRCLE
  5
3ED
100
AcDbEntity
  8
_ACHSEN
100
AcDbCircle
 62
7
  6
CONTINUOUS
 10
-58.9745699505
 20
-210.8645637878
 40
1.7
  0
CIRCLE
  5
3EE
100
AcDbEntity
  8
_ACHSEN
100
AcDbCircle
 62
7
  6
CONTINUOUS
 10
-58.9745699505
 20
-190.3645637878
 40
1.7
  0
CIRCLE
  5
3EF
100
AcDbEntity
  8
_ACHSEN
100
AcDbCircle
 62
7
  6
CONTINUOUS
 10
-32.7745699505
 20
-190.3645637878
 40
1.7
  0
CIRCLE
  5
3F0
100
AcDbEntity
  8
0
100
AcDbCircle
 62
7
  6
CONTINUOUS
 10
-6.179780502
 20
-202.3832548255
 40
3.5
  0
CIRCLE
  5
3F1
100
AcDbEntity
  8
0
100
AcDbCircle
 62
7
  6
CONTINUOUS
 10
-6.179780502
 20
-202.3832548255
 40
1.75
  0
ENDSEC
  0
SECTION
  2
OBJECTS
  0
DICTIONARY
  5
C
100
AcDbDictionary
280
0
281
1
  3
ACAD_GROUP
350
D
  3
ACAD_MLINESTYLE
350
17
  3
ACAD_LAYOUT
350
1A
  3
ACAD_PLOTSETTINGS
350
19
  3
ACAD_PLOTSTYLENAME
350
E
  0
DICTIONARY
  5
D
102
{ACAD_REACTORS
330
C
102
}
100
AcDbDictionary
280
0
281
1
  0
ACDBDICTIONARYWDFLT
  5
E
102
{ACAD_REACTORS
330
C
102
}
100
AcDbDictionary
281
1
  3
Normal
350
F
100
AcDbDictionaryWithDefault
340
F
  0
DICTIONARY
  5
17
102
{ACAD_REACTORS
330
C
102
}
100
AcDbDictionary
280
0
281
1
  3
Standard
350
18
  0
DICTIONARY
  5
19
102
{ACAD_REACTORS
330
C
102
}
100
AcDbDictionary
281
1
  0
DICTIONARY
  5
1A
102
{ACAD_REACTORS
330
C
102
}
100
AcDbDictionary
281
1
  3
Model
350
3F2
  3
Layout1
350
3F3
  0
ACDBPLACEHOLDER
  5
F
102
{ACAD_REACTORS
330
E
102
}
  0
MLINESTYLE
  5
18
102
{ACAD_REACTORS
330
17
102
}
100
AcDbMlineStyle
  2
STANDARD
 70
0
  3

 62
256
 51
90.0
 52
90.0
 71
2
 49
0.5
 62
256
  6
BYLAYER
 49
-0.5
 62
256
  6
BYLAYER
  0
LAYOUT
  5
3F2
102
{ACAD_REACTORS
330
1A
102
}
100
AcDbPlotSettings
  1

  2
none_device
  4

  6

 40
0.0
 41
0.0
 42
0.0
 43
0.0
 44
210.0
 45
297.0
 46
0.0
 47
0.0
 48
0.0
 49
0.0
140
0.0
141
0.0
142
1.0
143
1.0
 70
1024
 72
1
 73
0
 74
0
  7

 75
0
147
1.0
148
0.0
149
0.0
100
AcDbLayout
  1
Model
 70
0
 71
0
 10
0.0
 20
0.0
 11
210.0
 21
297.0
 12
0.0
 22
0.0
 32
0.0
 14
0.0
 24
0.0
 34
0.0
 15
0.0
 25
0.0
 35
0.0
146
0.0
 13
0.0
 23
0.0
 33
0.0
 16
1.0
 26
0.0
 36
0.0
 17
0.0
 27
1.0
 37
0.0
 76
0
330
210
345
0
346
0
  0
LAYOUT
  5
3F3
102
{ACAD_REACTORS
330
1A
102
}
100
AcDbPlotSettings
  1

  2
none_device
  4

  6

 40
0.0
 41
0.0
 42
0.0
 43
0.0
 44
210.0
 45
297.0
 46
0.0
 47
0.0
 48
0.0
 49
0.0
140
0.0
141
0.0
142
1.0
143
1.0
 70
0
 72
1
 73
0
 74
0
  7

 75
0
147
1.0
148
0.0
149
0.0
100
AcDbLayout
  1
Layout1
 70
0
 71
1
 10
0.0
 20
0.0
 11
210.0
 21
297.0
 12
0.0
 22
0.0
 32
0.0
 14
0.0
 24
0.0
 34
0.0
 15
0.0
 25
0.0
 35
0.0
146
0.0
 13
0.0
 23
0.0
 33
0.0
 16
1.0
 26
0.0
 36
0.0
 17
0.0
 27
1.0
 37
0.0
 76
0
330
211
345
0
346
0
  0
ENDSEC
  0
EOF
